<svg width="90" height="72" viewBox="0 0 90 72" fill="none" xmlns="http://www.w3.org/2000/svg">
<path d="M13.1997 71.8857C11.6255 71.6965 10.7695 70.6931 10.7695 69.0372C10.7695 68.119 11.5872 66.913 15.0804 62.68L19.3913 57.456V42.7035V27.9509L20.4395 26.7777L21.4877 25.6045H44.5382H67.5887L68.6369 26.7777L69.6852 27.9509V42.6765V57.4021L74.1944 62.8782C78.2492 67.8024 78.6829 68.4628 78.4966 69.4308C78.3827 70.0229 77.9685 70.8283 77.5762 71.2206C76.8766 71.9202 76.269 71.9349 45.7022 71.9904C28.5638 72.0215 13.9377 71.9744 13.1997 71.8857ZM51.1524 65.9294C51.0128 65.6825 50.5318 64.9835 50.0835 64.3761L49.2683 63.2719L44.4927 63.2984L39.717 63.325L38.8944 64.5456C38.442 65.217 38.0719 65.904 38.0719 66.0724C38.0719 66.2408 41.0721 66.3785 44.739 66.3785C49.9687 66.3785 51.3515 66.2817 51.1524 65.9295V65.9294ZM66.6316 54.1186C67.0476 53.7141 67.142 29.9244 66.7316 28.9247C66.4877 28.3306 65.1731 28.2988 44.4586 28.3859L22.4448 28.4785V41.4112V54.3439L32.1444 54.5235C45.9192 54.7786 66.1977 54.5405 66.6316 54.1186ZM28.0731 51.099C26.373 47.3676 28.027 42.5236 31.7249 40.4041C32.8165 39.7784 33.2785 39.1685 33.9558 37.4595C34.5578 35.9404 35.3506 34.8014 36.6412 33.6017C39.8342 30.6334 43.6118 30.1279 48.1307 32.0642C49.2174 32.5299 50.8915 33.004 51.851 33.1179C55.1936 33.5146 58.4465 35.9931 59.5338 38.9717C60.8358 42.5381 61.7819 46.0078 61.7819 47.2163C61.7819 47.9902 61.4181 49.3447 60.9736 50.2263C60.2173 51.7261 60.0615 51.8366 58.5525 51.9439L56.9398 52.0585L57.7022 51.2254C59.7966 48.9367 60.1513 45.9969 58.5965 43.8134C58.175 43.2215 57.8302 42.2878 57.8302 41.7386C57.8302 38.6743 54.5508 35.4894 51.3833 35.4775C50.2207 35.4732 49.2275 35.1631 47.951 34.4059C46.3897 33.4798 45.8 33.3397 43.441 33.3344C41.0624 33.329 40.5258 33.4559 39.0965 34.3624C37.3642 35.461 36.1269 37.1282 35.7314 38.8965C35.5988 39.4892 35.4121 40.2622 35.3164 40.6141C35.2207 40.966 34.4293 41.5891 33.5578 41.9988C31.5619 42.937 29.9157 44.7895 29.6047 46.4472C29.3629 47.7361 29.9936 50.7805 30.5771 51.1412C31.268 51.5682 30.8161 52.0088 29.6873 52.0088C28.7522 52.0088 28.3963 51.8082 28.0731 51.099ZM38.113 48.9972C36.4145 47.2665 36.6255 46.4122 38.4335 47.6997L39.5088 48.4653V43.4115C39.5088 39.1586 39.5942 38.3576 40.0477 38.3576C40.501 38.3576 40.5866 39.1559 40.5866 43.387C40.5866 46.1532 40.6974 48.4164 40.8328 48.4164C40.9683 48.4164 41.4554 48.0629 41.9153 47.6308C42.5843 47.0023 42.8404 46.9353 43.1958 47.2956C43.55 47.6546 43.3121 48.0304 42.0235 49.1482C41.1344 49.9194 40.2385 50.5552 40.0327 50.5611C39.8268 50.567 38.963 49.8633 38.113 48.9972ZM48.8491 45.4798V40.3878L47.9463 41.236C47.2257 41.9129 46.9536 41.9937 46.5991 41.6359C46.2454 41.279 46.4633 40.899 47.6677 39.7726C48.4998 38.9944 49.3889 38.3624 49.6435 38.3683C49.8982 38.3742 50.834 39.0101 51.7231 39.7813C52.9693 40.8623 53.2427 41.2819 52.9162 41.613C52.5884 41.9454 52.2638 41.8622 51.4793 41.2446L50.4657 40.4466L50.366 45.5092C50.2722 50.2752 50.2248 50.5718 49.5577 50.5718C48.8857 50.5718 48.8491 50.3087 48.8491 45.4798ZM4.50315 43.3702C1.57608 41.9098 -0.0129964 39.3665 8.00631e-05 36.1628C0.0223531 30.73 4.71631 27.0191 9.9716 28.2798C14.2572 29.3079 16.9798 33.9717 15.8165 38.2919C15.3051 40.1912 13.2279 42.561 11.3083 43.4353C9.38695 44.3103 6.329 44.2811 4.50315 43.3702ZM7.33306 40.1628C8.4655 39.7322 9.68854 37.8078 9.69037 36.4537C9.69037 35.456 9.67495 35.4487 7.62608 35.5556C5.83584 35.6489 5.56044 35.7591 5.56044 36.3818C5.56044 36.934 5.83825 37.1269 6.76082 37.2153C7.92226 37.3266 7.94085 37.3528 7.33381 38.0236C5.90161 39.6061 3.08526 38.3618 3.14748 36.174C3.19516 34.4967 4.3822 33.5553 6.15035 33.7924C7.3435 33.9525 8.25476 33.5836 8.25476 32.9407C8.25476 32.8066 7.77244 32.4971 7.183 32.253C4.9503 31.3282 2.09608 32.6955 1.46148 34.9938C0.502693 38.4662 3.90876 41.4647 7.33306 40.1628ZM13.5393 37.2799C13.6426 36.8847 13.9508 36.5614 14.2241 36.5614C14.4975 36.5614 14.7211 36.3189 14.7211 36.0225C14.7211 35.7262 14.4895 35.4837 14.2065 35.4837C13.9234 35.4837 13.5892 35.1603 13.4638 34.7652C13.3384 34.37 13.0041 34.0467 12.721 34.0467C12.438 34.0467 12.2064 34.37 12.2064 34.7652C12.2064 35.2442 11.9669 35.4837 11.4879 35.4837C11.0888 35.4837 10.7695 35.7232 10.7695 36.0225C10.7695 36.3219 11.0888 36.5614 11.4879 36.5614C11.9669 36.5614 12.2064 36.8009 12.2064 37.2799C12.2064 37.6978 12.4459 37.9984 12.7789 37.9984C13.0938 37.9984 13.4359 37.675 13.5393 37.2799ZM73.6344 43.5637C73.296 43.1559 73.224 41.3088 73.3436 36.0941C73.4309 32.2839 73.6229 28.9712 73.7704 28.7326C73.9653 28.4172 75.9905 28.2988 81.1895 28.2988C87.8918 28.2988 88.3638 28.3424 88.7124 28.9937C88.9322 29.4044 89.0843 32.5473 89.0843 36.679C89.0843 42.7219 89.0073 43.6989 88.516 43.8874C88.2035 44.0074 84.8284 44.1055 81.0159 44.1055C75.2759 44.1055 74.0068 44.0123 73.6344 43.5637ZM78.307 37.9984V34.4059H77.0497H75.7923V36.8757C75.7923 40.7797 76.0472 41.5908 77.2742 41.5908H78.307V37.9984ZM81.8136 39.615C81.9565 36.881 82.1868 36.2021 82.9714 36.2021C83.958 36.2021 84.4141 37.2736 84.4141 39.5913C84.4141 41.5735 84.4235 41.5908 85.4918 41.5908H86.5696V38.7968C86.5696 34.7494 86.2832 34.4491 82.4338 34.4598L79.3847 34.4683V37.7901C79.3847 39.617 79.4999 41.227 79.6407 41.3678C79.7815 41.5086 80.3069 41.576 80.8082 41.5175C81.6335 41.4212 81.7287 41.2412 81.8136 39.615V39.615ZM77.8759 33.2564C78.9605 32.1717 77.859 30.4513 76.5337 31.1605C75.6489 31.634 75.5843 32.3504 76.3568 33.1229C77.0344 33.8005 77.3077 33.8245 77.8759 33.2564ZM13.8038 21.014C13.707 20.7615 13.6716 17.3262 13.7253 13.3801L13.823 6.20543L21.2834 6.10831L28.7438 6.01119L29.0969 6.93999C29.4836 7.95696 29.5766 17.9655 29.2195 20.1261L28.9968 21.4732H26.5291H24.0614V17.8808V14.2884H25.1391C26.1313 14.2884 26.2169 14.1886 26.2169 13.031C26.2169 11.8668 26.1351 11.7737 25.1128 11.7737C24.2554 11.7737 24.0354 11.6332 24.1279 11.145C24.1999 10.7658 24.638 10.4712 25.232 10.4027C26.1096 10.3014 26.2169 10.1429 26.2169 8.94676V7.60453L24.1894 7.8277C21.8938 8.08038 20.8282 8.99472 20.8282 10.7119C20.8282 11.5511 20.6579 11.7456 19.8403 11.8396C19.0171 11.9343 18.8336 12.148 18.7398 13.1208C18.6349 14.2085 18.7025 14.2884 19.7277 14.2884H20.8282V17.8808V21.4732H17.4041C14.956 21.4732 13.9298 21.3423 13.8038 21.014ZM59.1647 18.7478C58.8877 15.0858 59.2257 6.65352 59.6674 6.20543C60.0743 5.79273 73.1046 5.70136 74.0859 6.10434C74.6565 6.33866 74.7146 7.06012 74.7146 13.9179V21.4732H67.0427H59.3709L59.1647 18.7478ZM68.2621 17.8737C69.8787 17.049 71.3531 15.0489 71.7038 13.2048C71.8347 12.5165 72.0972 11.6503 72.287 11.28C72.4768 10.9097 72.6748 10.2186 72.7268 9.74436C72.8032 9.0489 72.692 8.92313 72.1528 9.09429C71.7851 9.21101 70.9314 9.10661 70.2558 8.86231C69.2041 8.48201 68.8921 8.50679 68.0867 9.03447C67.5608 9.37906 67.0508 10.1267 66.9301 10.7302C66.7325 11.7184 66.6198 11.7906 65.5952 11.586C64.9798 11.463 63.8017 10.9014 62.9774 10.3379C61.7258 9.48226 61.4435 9.40471 61.2659 9.86759C61.1489 10.1725 61.2814 10.8791 61.5601 11.4378C62.0058 12.3313 62 12.4669 61.512 12.5628C61.0724 12.6492 61.1612 12.9141 61.9403 13.8393C62.5601 14.5753 62.7457 15.0111 62.4425 15.0182C62.1734 15.0246 62.3968 15.4127 62.9494 15.8991C63.4927 16.3773 63.9373 16.8553 63.9373 16.9612C63.9373 17.0672 63.2661 17.2612 62.4457 17.3923C61.0868 17.6096 61.0129 17.674 61.6162 18.1151C62.66 18.8783 66.5714 18.7363 68.2621 17.8737ZM42.6323 16.2056C42.2756 16.1059 42.063 15.8358 42.1599 15.6054C42.2568 15.375 42.5319 14.5866 42.7713 13.8534C43.2019 12.5346 43.2231 12.5226 44.761 12.7334C47.4429 13.101 49.5649 10.9316 49.5649 7.82202C49.5649 4.78326 47.4711 2.79263 44.2747 2.79263C40.2673 2.79263 37.3391 7.31713 39.5376 10.1121C40.5815 11.4392 40.9851 10.9775 40.7239 8.75496C40.4599 6.50861 40.8711 5.55014 42.449 4.7342C43.7651 4.05363 45.726 4.25196 46.7382 5.16801C47.7144 6.05147 47.6726 9.19024 46.6676 10.4679C45.8483 11.5095 44.854 11.6889 44.2088 10.9115C43.8924 10.5303 43.8917 10.0099 44.2052 8.76263C44.6823 6.86716 44.4788 6.02581 43.5429 6.02581C42.5778 6.02581 42.0227 6.74113 42.0235 7.98367C42.0235 10.0338 40.8824 15.3661 40.4418 15.3661C39.8262 15.3661 37.5434 12.8922 36.7954 11.4144C35.9024 9.65046 35.9612 6.59549 36.9241 4.71725C38.5121 1.61984 42.4149 -0.51922 45.3299 0.110119C50.0724 1.13399 53.1323 5.59765 52.0849 9.9639C51.5922 12.0175 49.3323 14.8422 47.607 15.5607C46.3063 16.1024 43.5431 16.4606 42.6316 16.2056H42.6323Z" fill="#013441"/>
</svg>
