<svg width="72" height="72" viewBox="0 0 72 72" fill="none" xmlns="http://www.w3.org/2000/svg">
<path d="M21.9518 71.2708C20.1784 69.8343 20.1545 69.5488 20.164 49.9101C20.1731 31.1717 20.178 31.0641 20.9715 32.0866C21.4106 32.6524 21.8844 33.626 22.0245 34.2503C22.5199 36.4584 25.0926 36.6085 25.0926 34.4292C25.0926 32.6966 21.6207 27.1488 20.5364 27.1488C20.3266 27.1488 20.1549 27.9265 20.1549 28.8771C20.1549 30.2212 20.0451 30.4955 19.6611 30.1115C19.3895 29.8399 19.0361 29.6177 18.8758 29.6177C18.7154 29.6177 17.4393 31.6545 16.0401 34.144C13.9626 37.8401 13.3237 38.6703 12.5566 38.6703C11.7924 38.6703 11.1343 37.8264 9.02649 34.144C7.60158 31.6545 6.31085 29.6177 6.15819 29.6177C5.63931 29.6177 4.46339 31.1812 3.32425 33.3857C2.42903 35.1182 1.97851 35.5842 1.19884 35.5842C-2.09806 35.5842 1.96027 28.3294 6.64973 25.8401C8.14089 25.0485 9.05834 24.8954 12.3368 24.891C16.1079 24.8859 16.6887 25.0217 19.8463 26.6471C20.016 26.7345 20.1549 25.4216 20.1549 23.7296C20.1549 20.525 20.3674 20.1537 22.2019 20.1537C22.6118 20.1537 23.0538 19.8759 23.1841 19.5365C23.4915 18.7354 25.4594 18.7354 25.7668 19.5365C25.9456 20.0025 26.6984 20.1537 28.84 20.1537C30.3999 20.1537 31.6763 19.975 31.6763 19.7567C31.6763 19.5383 32.0424 19.1638 32.4899 18.9243C33.136 18.5785 33.4747 18.6602 34.1358 19.3213C34.8006 19.9861 35.5067 20.1537 37.6427 20.1537C39.1138 20.1537 40.3174 19.975 40.3174 19.7567C40.3174 19.5383 40.6835 19.1638 41.1309 18.9243C41.7771 18.5785 42.1157 18.6602 42.7768 19.3213C43.9816 20.5261 48.4578 20.5247 49.49 19.3192C50.0624 18.6507 50.3668 18.5718 51.0215 18.9222C51.471 19.1628 51.8388 19.5383 51.8388 19.7566C51.8388 19.975 53.0938 20.1536 54.6277 20.1536C56.9201 20.1536 57.5438 20.0051 58.131 19.3192C58.7034 18.6507 59.0078 18.5718 59.6626 18.9222C60.1121 19.1628 60.4798 19.5383 60.4798 19.7566C60.4798 19.975 61.776 20.1536 63.3602 20.1536H66.2406V22.5402C66.2406 25.0065 66.7017 25.9143 67.9543 25.9143C68.9915 25.9143 69.5324 24.6448 69.5324 22.2107C69.5324 20.1497 69.5595 20.1021 70.664 20.2291L71.7955 20.3593L71.9017 44.9736L72.0078 69.5879L70.8017 70.794L69.5957 72L46.2126 71.9909C24.6788 71.9825 22.7601 71.9255 21.9518 71.2708V71.2708ZM63.7828 65.9239C66.0864 64.7743 66.5133 63.4054 66.4627 57.3316C66.3963 49.3641 65.9527 48.9573 57.3332 48.9573H51.7565L50.3575 50.3563L48.9584 51.7553V57.3719C48.9584 66.0347 49.3534 66.4354 58.0221 66.5699C61.4076 66.6224 62.6658 66.4813 63.7828 65.9239ZM52.093 62.7198C51.9532 62.3554 51.8388 60.0488 51.8388 57.5941C51.8388 51.7431 51.7412 51.8376 57.7843 51.8376C61.2549 51.8376 62.5571 51.9829 62.9114 52.4098C63.2287 52.7921 63.3478 54.6695 63.2704 58.0676L63.1545 63.1533L57.7509 63.2678C53.095 63.3664 52.3121 63.2906 52.093 62.7198ZM45.6502 64.4075C45.9229 64.0789 46.0819 63.4771 46.0036 63.0702C45.8711 62.3826 45.1644 62.3303 35.9912 62.3303H26.1213L25.9825 63.3125C25.9061 63.8527 26.0913 64.4516 26.394 64.6435C26.6966 64.8354 31.0416 64.9952 36.0494 64.9986C43.5124 65.0038 45.2438 64.8972 45.6502 64.4075ZM45.6502 58.6468C45.9229 58.3182 46.0822 57.7164 46.0041 57.3095C45.8739 56.6309 45.0962 56.5526 36.609 56.3639C31.5198 56.2507 27.0317 56.3035 26.6357 56.4812C25.806 56.8535 25.6887 58.0298 26.4094 58.7505C26.7638 59.1048 29.4797 59.2442 36.0288 59.2442C43.5042 59.2442 45.244 59.1362 45.6502 58.6468ZM45.5843 52.9897C46.4232 52.1508 46.1451 51.0197 44.9921 50.5813C43.6124 50.0568 27.6518 50.1144 26.6557 50.6475C25.8074 51.1015 25.685 52.2654 26.4094 52.9897C27.1094 53.6898 44.8843 53.6898 45.5843 52.9897ZM57.1576 45.3108C57.443 44.7774 57.4162 44.3379 57.0692 43.8644C56.6203 43.2516 55.2279 43.1949 43.0367 43.2932C31.1046 43.3894 29.453 43.4809 29.0837 44.0664C28.8534 44.4317 28.7812 45.0335 28.9233 45.4037C29.1553 46.0084 30.5837 46.0769 42.9646 46.0769C55.9856 46.0769 56.7703 46.0345 57.1576 45.3108ZM14.7847 30.7161C16.4385 27.7851 16.194 27.406 12.649 27.406C8.50931 27.406 8.39664 27.6224 10.5766 31.3878C12.6669 34.9982 12.3392 35.0505 14.7847 30.7161ZM25.4218 25.4206C25.6934 25.1491 25.9156 23.8529 25.9156 22.5403V20.1537H24.4754H23.0352V22.794C23.0352 25.336 23.2491 25.7882 24.496 25.8819C24.7336 25.8998 25.1502 25.6922 25.4218 25.4206ZM34.0629 25.4206C34.3345 25.1491 34.5566 23.8529 34.5566 22.5403V20.1537H33.1165H31.6763V22.794C31.6763 25.336 31.8902 25.7882 33.1371 25.8819C33.3747 25.8998 33.7913 25.6922 34.0629 25.4206ZM42.5468 25.6646C43.0464 25.4729 43.1977 24.8035 43.1977 22.7843V20.1537H41.7575H40.3174V22.5403C40.3174 25.4368 40.9243 26.2873 42.5468 25.6646ZM51.1879 25.6646C51.6875 25.4729 51.8388 24.8035 51.8388 22.7843V20.1537H50.3986H48.9584V22.5403C48.9584 25.4368 49.5653 26.2873 51.1879 25.6646ZM60.2333 25.569C60.444 25.228 60.6318 22.272 60.5315 20.8738C60.4929 20.335 60.1173 20.1537 59.0397 20.1537H57.5995V22.5403C57.5995 23.8529 57.8217 25.1491 58.0933 25.4206C58.6621 25.9895 59.9196 26.0767 60.2333 25.569ZM9.43124 22.495C6.32383 21.6196 3.69519 19.3424 2.00196 16.0589C-0.094325 11.9939 1.27731 5.88799 5.00321 2.69875C11.006 -2.43943 20.5675 0.0824037 23.3125 7.52783C24.0755 9.59722 23.9546 13.9352 23.0803 15.8601C20.6985 21.1041 14.753 23.9943 9.43124 22.495ZM66.652 19.5708C66.652 18.8061 67.4977 18.5249 68.4008 18.9893C69.5146 19.5622 69.2533 20.1537 67.8865 20.1537C67.0958 20.1537 66.652 19.9441 66.652 19.5708Z" fill="#013441"/>
</svg>
