<svg width="73" height="72" viewBox="0 0 73 72" fill="none" xmlns="http://www.w3.org/2000/svg">
<path d="M18.8218 71.8458C18.4018 71.4258 18.5758 67.1822 19.0283 66.8066C19.2653 66.6099 20.6433 66.4048 22.0905 66.3508L24.722 66.2526L25.4542 63.7619C25.8569 62.392 26.1975 61.0844 26.211 60.8561C26.2302 60.5314 23.6994 60.441 14.5958 60.441C4.84119 60.441 2.79834 60.3594 1.98196 59.9372C-0.0677541 58.8773 0.000263466 59.7656 0.000263466 34.0512V10.6172L1.13705 9.37676L2.27384 8.13628H36.0324H69.7908L70.9276 9.37676L72.0645 10.6172V34.0512C72.0645 59.7656 72.1324 58.8773 70.0827 59.9372C69.2663 60.3594 67.2235 60.441 57.4689 60.441C48.3653 60.441 45.8345 60.5314 45.8537 60.8561C45.8673 61.0844 46.2077 62.392 46.6105 63.7619L47.3427 66.2526L49.9741 66.3508C51.4214 66.4048 52.8055 66.615 53.0499 66.8178C53.3631 67.0777 53.4657 67.8818 53.3977 69.5424L53.3012 71.8982L36.1737 71.9842C26.7535 72.0315 18.9452 71.9692 18.8218 71.8458ZM51.1426 69.4075C51.1426 68.753 50.9212 68.7433 36.0324 68.7433C21.1435 68.7433 20.9221 68.753 20.9221 69.4075C20.9221 70.0619 21.1435 70.0717 36.0324 70.0717C50.9212 70.0717 51.1426 70.0619 51.1426 69.4075ZM44.2107 63.4298L43.3731 60.441H36.0324H28.6915L27.854 63.4298L27.0165 66.4186H36.0324H45.0482L44.2107 63.4298ZM69.5549 57.3782C69.8477 56.9603 70.0719 55.9521 70.0719 55.0536V53.467H36.0324H1.99282V55.0536C1.99282 55.9521 2.217 56.9603 2.50977 57.3782L3.02672 58.1163H36.0324H69.038L69.5549 57.3782ZM69.9965 31.1899C69.9088 11.8777 69.8852 11.2223 69.2613 10.7661C68.2948 10.0597 3.76986 10.0597 2.80344 10.7661C2.1795 11.2223 2.15593 11.8777 2.06823 31.1899L1.97758 51.1424H36.0324H70.0871L69.9965 31.1899ZM4.8825 46.2832C4.75438 46.1551 4.64957 44.6583 4.64957 42.9571C4.64957 39.3369 4.54789 39.4228 8.63858 39.586L11.1254 39.6851V43.0061V46.327L8.12041 46.4216C6.46772 46.4736 5.01066 46.4114 4.8825 46.2832ZM9.29887 43.0061C9.29887 41.8714 9.26733 41.8438 7.9705 41.8438C6.67374 41.8438 6.64213 41.8714 6.64213 43.0061C6.64213 44.1407 6.67368 44.1684 7.9705 44.1684C9.26726 44.1684 9.29887 44.1407 9.29887 43.0061ZM60.92 46.0642C60.8242 45.8145 60.7893 44.2771 60.8426 42.6477L60.9394 39.6851L63.4261 39.586C67.5722 39.4206 67.4553 39.3158 67.3441 43.0984L67.2492 46.327L64.1716 46.4226C61.8083 46.4959 61.0538 46.4128 60.92 46.0642ZM65.4226 43.0061C65.4226 41.8714 65.3911 41.8438 64.0943 41.8438C62.7975 41.8438 62.7659 41.8714 62.7659 43.0061C62.7659 44.1407 62.7974 44.1684 64.0943 44.1684C65.391 44.1684 65.4226 44.1407 65.4226 43.0061ZM21.234 43.646C20.8683 43.2053 20.9918 42.737 22.0237 40.6516C22.6964 39.2921 23.2468 38.1194 23.2468 38.0456C23.2468 37.9718 22.8358 37.8188 22.3335 37.7057C20.7457 37.348 18.4871 35.4157 17.4352 33.515C16.559 31.9319 16.4395 31.3947 16.4446 29.0582C16.4509 26.2155 16.9728 24.7711 18.7629 22.6437C20.0794 21.0791 22.7885 19.8939 25.1138 19.8652C28.1456 19.8279 29.7905 20.4809 31.9365 22.5737C33.4642 24.0634 33.9243 24.7768 34.381 26.3638C35.2784 29.4824 34.6029 32.6418 32.5349 34.997L31.5267 36.1452L33.261 39.6323C35.6131 44.3618 35.8419 44.1684 27.8961 44.1684C22.6362 44.1684 21.6002 44.0872 21.234 43.646ZM30.8018 39.6673C29.8983 37.8351 29.623 37.5234 29.0613 37.696C28.6944 37.8087 27.7819 37.983 27.0336 38.0833C25.777 38.2517 25.606 38.4024 24.7956 40.0547L23.9181 41.8438H27.8966H31.875L30.8018 39.6673ZM25.8271 33.0433C27.5708 29.5274 28.15 29.3694 29.4652 32.051C29.959 33.0577 30.5078 33.8331 30.6849 33.7741C31.5241 33.4944 32.3793 30.9999 32.3781 28.8359C32.3781 26.9063 32.2468 26.4361 31.3679 25.1856C27.3196 19.4256 18.5975 22.0705 18.5975 29.0582C18.5975 31.8663 19.8888 33.9817 22.4166 35.3143C24.0959 36.1996 24.3435 36.0346 25.8271 33.0433ZM28.1564 35.5854C28.5785 35.3175 28.3831 34.2056 27.9139 34.2056C27.7801 34.2056 27.5003 34.5792 27.2923 35.0358C26.891 35.9166 27.2621 36.1527 28.1564 35.5854ZM44.8329 41.0112C35.8884 38.3916 35.2705 38.1837 35.0986 37.7359C34.8389 37.059 38.9868 23.2178 39.5395 22.9175C39.8229 22.7635 42.0453 23.2504 44.9989 24.1136C54.9429 27.02 54.4636 26.8387 54.4636 27.6934C54.4636 28.3054 52.9543 33.7486 50.6177 41.564C50.5272 41.8668 50.272 42.1836 50.0506 42.268C49.8293 42.3525 47.4813 41.7869 44.8329 41.0112ZM49.1379 38.6058C49.328 37.9209 50.0623 35.4177 50.7697 33.0433C51.4771 30.6688 52.0063 28.6704 51.9459 28.6023C51.6468 28.2656 40.9957 25.2952 40.8219 25.5C40.5163 25.8599 37.5136 36.2957 37.6705 36.4526C37.7956 36.5777 48.0115 39.7339 48.5561 39.8157C48.686 39.8352 48.9478 39.2908 49.1379 38.6058ZM4.79567 37.7604C4.69953 37.5099 4.66468 36.0472 4.71824 34.5099L4.81562 31.7149H7.9705H11.1254V34.8698V38.0247L8.04785 38.1202C5.67986 38.1938 4.93014 38.1108 4.79567 37.7604ZM9.29887 34.8497V33.5013L8.05352 33.6044C7.04044 33.6882 6.78778 33.8513 6.69888 34.4788C6.51577 35.7714 6.87005 36.1982 8.12609 36.1982C9.2758 36.1982 9.29887 36.1717 9.29887 34.8497ZM60.9194 37.7604C60.8233 37.5099 60.7884 36.0472 60.842 34.5099L60.9394 31.7149H64.0943H67.2492V34.8698V38.0247L64.1716 38.1202C61.8036 38.1938 61.0539 38.1108 60.9194 37.7604ZM65.2566 34.8698C65.2566 33.7664 65.1935 33.7022 64.0112 33.6044L62.7659 33.5013V34.8698V36.2383L64.0112 36.1352C65.1935 36.0373 65.2566 35.9732 65.2566 34.8698ZM5.05147 29.9454C4.7398 29.7427 4.64937 28.815 4.71938 26.5397L4.81562 23.4126H7.9705H11.1254V26.7335V30.0544L8.3026 30.1392C6.75006 30.1858 5.28702 30.0986 5.05147 29.9454ZM9.29887 26.7335C9.29887 25.5989 9.26733 25.5712 7.9705 25.5712C6.67374 25.5712 6.64213 25.5988 6.64213 26.7335C6.64213 27.8682 6.67368 27.8958 7.9705 27.8958C9.26726 27.8958 9.29887 27.8682 9.29887 26.7335ZM60.9151 29.7791C60.822 29.5363 60.7893 28.0045 60.8426 26.3751L60.9394 23.4126H64.0943H67.2492L67.3453 26.5397C67.4154 28.8176 67.3251 29.7406 67.0132 29.9386C66.2641 30.4138 61.107 30.2789 60.9151 29.7791ZM65.4226 26.7335C65.4226 25.5989 65.3911 25.5712 64.0943 25.5712C62.7975 25.5712 62.7659 25.5988 62.7659 26.7335C62.7659 27.8682 62.7974 27.8958 64.0943 27.8958C65.391 27.8958 65.4226 27.8682 65.4226 26.7335ZM4.8825 21.7083C4.47376 21.2996 4.61751 15.7733 5.04807 15.3427C5.50114 14.8896 10.2109 14.7956 10.8895 15.2261C11.2015 15.424 11.2917 16.3471 11.2215 18.625L11.1254 21.7521L8.12041 21.8467C6.46772 21.8987 5.01066 21.8365 4.8825 21.7083ZM9.29887 18.4312C9.29887 17.2965 9.26733 17.2688 7.9705 17.2688C6.67374 17.2688 6.64213 17.2965 6.64213 18.4312C6.64213 19.5658 6.67368 19.5935 7.9705 19.5935C9.26726 19.5935 9.29887 19.5658 9.29887 18.4312ZM61.0063 21.7083C60.8781 21.5802 60.7733 20.0966 60.7733 18.4114C60.7733 14.8416 60.6705 14.9442 64.2468 14.9442C65.9193 14.9442 66.7892 15.0883 67.0558 15.4095C67.303 15.7073 67.4073 16.9324 67.3456 18.8134L67.2492 21.7521L64.2442 21.8467C62.5915 21.8987 61.1344 21.8365 61.0063 21.7083ZM65.4226 18.4312C65.4226 17.2965 65.3911 17.2688 64.0943 17.2688C62.7975 17.2688 62.7659 17.2965 62.7659 18.4312C62.7659 19.5658 62.7974 19.5935 64.0943 19.5935C65.391 19.5935 65.4226 19.5658 65.4226 18.4312ZM20.0184 5.39193C16.4629 3.59737 16.5006 3.05451 20.3136 1.13432L22.566 0H37.493H52.42L53.4173 0.83921C55.0977 2.25317 55.1009 4.38439 53.425 5.94579C52.6885 6.632 52.4635 6.64159 37.5472 6.62213L22.4166 6.6024L20.0184 5.39193ZM24.5181 3.52671C24.6786 2.12606 24.2152 1.8762 22.6319 2.5097C21.8742 2.81289 21.2542 3.16706 21.2542 3.29674C21.2542 3.64705 23.3351 4.62575 23.911 4.5463C24.1903 4.50776 24.4569 4.05993 24.5181 3.52671ZM51.8286 4.30553C52.6065 3.88922 52.6517 3.21703 51.9491 2.51442C51.4933 2.05859 49.8545 1.99256 38.9975 1.99256H26.5677V3.32093V4.64931H38.877C46.727 4.64931 51.419 4.52477 51.8286 4.30553Z" fill="#013441"/>
</svg>
