<svg width="182" height="48" viewBox="0 0 182 48" fill="none" xmlns="http://www.w3.org/2000/svg">
<path d="M16.3568 7.48779C16.5776 7.58478 16.7867 7.72098 16.97 7.90585C17.7606 8.70351 17.7829 10.0108 17.0195 10.8375L0.000550317 29.2766V34.4451L14.1651 19.0988C14.5466 18.6854 15.0501 18.4726 15.557 18.4631C16.0639 18.4532 16.5741 18.6476 16.9695 19.0464C17.7601 19.8441 17.7824 21.1515 17.0189 21.9781L0 40.4172V45.5416H0.0403868L14.1643 30.2394C14.5458 29.826 15.0493 29.6132 15.5561 29.6037C16.063 29.5938 16.5733 29.7882 16.9687 30.187C17.7592 30.9847 17.7816 32.2921 17.0181 33.1187L3.88278 47.3501H9.46492H18.0872H24.4249C31.3307 47.3501 35.5982 42.6208 35.5982 36.0614C35.5982 30.4363 32.2926 26.7572 28.2112 26.5625V26.1734C31.8892 25.2586 34.3563 21.8524 34.3563 17.4535C34.3563 11.3808 30.5076 7.48779 23.2448 7.48779H18.0872H16.3568Z" fill="#F5C400"/>
<path d="M0 7.48779V16.2077V23.3045L14.1645 7.95818C14.1645 7.95818 14.579 7.59389 14.8173 7.48779H14.1206H9.46601H0Z" fill="white"/>
<path d="M63.6934 20.6567C63.6934 23.405 63.159 25.7234 62.0902 27.6119C61.0214 29.4923 59.5789 30.9187 57.7628 31.891C55.9467 32.8554 53.9216 33.3375 51.6876 33.3375C49.4375 33.3375 47.4044 32.8513 45.5883 31.879C43.7802 30.8986 42.3417 29.4682 41.2729 27.5878C40.2122 25.6993 39.6818 23.3889 39.6818 20.6567C39.6818 17.9084 40.2122 15.594 41.2729 13.7136C42.3417 11.8252 43.7802 10.3988 45.5883 9.43444C47.4044 8.46209 49.4375 7.97591 51.6876 7.97591C53.9216 7.97591 55.9467 8.46209 57.7628 9.43444C59.5789 10.3988 61.0214 11.8252 62.0902 13.7136C63.159 15.594 63.6934 17.9084 63.6934 20.6567ZM56.7985 20.6567C56.7985 19.1781 56.6016 17.9325 56.2078 16.92C55.8221 15.8994 55.2475 15.1279 54.4841 14.6056C53.7287 14.0752 52.7965 13.81 51.6876 13.81C50.5786 13.81 49.6424 14.0752 48.879 14.6056C48.1236 15.1279 47.549 15.8994 47.1553 16.92C46.7696 17.9325 46.5767 19.1781 46.5767 20.6567C46.5767 22.1353 46.7696 23.3849 47.1553 24.4055C47.549 25.418 48.1236 26.1895 48.879 26.7199C49.6424 27.2422 50.5786 27.5034 51.6876 27.5034C52.7965 27.5034 53.7287 27.2422 54.4841 26.7199C55.2475 26.1895 55.8221 25.418 56.2078 24.4055C56.6016 23.3849 56.7985 22.1353 56.7985 20.6567ZM90.7094 20.6567C90.7094 23.405 90.175 25.7234 89.1062 27.6119C88.0374 29.4923 86.5949 30.9187 84.7788 31.891C82.9627 32.8554 80.9376 33.3375 78.7036 33.3375C76.4535 33.3375 74.4204 32.8513 72.6043 31.879C70.7962 30.8986 69.3577 29.4682 68.2889 27.5878C67.2282 25.6993 66.6978 23.3889 66.6978 20.6567C66.6978 17.9084 67.2282 15.594 68.2889 13.7136C69.3577 11.8252 70.7962 10.3988 72.6043 9.43444C74.4204 8.46209 76.4535 7.97591 78.7036 7.97591C80.9376 7.97591 82.9627 8.46209 84.7788 9.43444C86.5949 10.3988 88.0374 11.8252 89.1062 13.7136C90.175 15.594 90.7094 17.9084 90.7094 20.6567ZM83.8145 20.6567C83.8145 19.1781 83.6176 17.9325 83.2238 16.92C82.8381 15.8994 82.2635 15.1279 81.5001 14.6056C80.7447 14.0752 79.8126 13.81 78.7036 13.81C77.5946 13.81 76.6584 14.0752 75.895 14.6056C75.1396 15.1279 74.5651 15.8994 74.1713 16.92C73.7856 17.9325 73.5927 19.1781 73.5927 20.6567C73.5927 22.1353 73.7856 23.3849 74.1713 24.4055C74.5651 25.418 75.1396 26.1895 75.895 26.7199C76.6584 27.2422 77.5946 27.5034 78.7036 27.5034C79.8126 27.5034 80.7447 27.2422 81.5001 26.7199C82.2635 26.1895 82.8381 25.418 83.2238 24.4055C83.6176 23.3849 83.8145 22.1353 83.8145 20.6567ZM107.118 16.028C107.054 15.2244 106.752 14.5976 106.214 14.1476C105.683 13.6975 104.876 13.4725 103.791 13.4725C103.1 13.4725 102.533 13.5569 102.091 13.7257C101.657 13.8864 101.336 14.1074 101.127 14.3886C100.918 14.6699 100.81 14.9913 100.802 15.353C100.786 15.6503 100.838 15.9195 100.958 16.1606C101.087 16.3936 101.288 16.6066 101.561 16.7994C101.834 16.9843 102.184 17.153 102.61 17.3057C103.036 17.4584 103.542 17.595 104.128 17.7155L106.154 18.1495C107.52 18.4388 108.689 18.8205 109.661 19.2946C110.634 19.7687 111.429 20.3272 112.048 20.9701C112.667 21.605 113.121 22.3202 113.41 23.1157C113.707 23.9113 113.86 24.7792 113.868 25.7194C113.86 27.3427 113.454 28.7168 112.651 29.8419C111.847 30.9669 110.698 31.8227 109.203 32.4094C107.717 32.996 105.929 33.2893 103.839 33.2893C101.694 33.2893 99.8212 32.9719 98.222 32.337C96.6309 31.7022 95.3934 30.7258 94.5094 29.4079C93.6335 28.082 93.1915 26.3864 93.1835 24.3211H99.548C99.5881 25.0765 99.777 25.7114 100.115 26.2257C100.452 26.74 100.926 27.1297 101.537 27.3949C102.156 27.6601 102.891 27.7927 103.743 27.7927C104.458 27.7927 105.057 27.7043 105.539 27.5275C106.021 27.3507 106.387 27.1056 106.636 26.7922C106.885 26.4788 107.013 26.1212 107.021 25.7194C107.013 25.3417 106.889 25.0122 106.648 24.731C106.415 24.4417 106.029 24.1845 105.491 23.9595C104.952 23.7265 104.225 23.5095 103.309 23.3086L100.85 22.7782C98.664 22.3041 96.9403 21.5125 95.6786 20.4036C94.425 19.2866 93.8022 17.7638 93.8103 15.8351C93.8022 14.2681 94.2201 12.898 95.0639 11.7247C95.9157 10.5434 97.093 9.62329 98.5957 8.96434C100.106 8.30538 101.838 7.97591 103.791 7.97591C105.784 7.97591 107.508 8.3094 108.962 8.97639C110.417 9.64338 111.538 10.5836 112.325 11.797C113.121 13.0024 113.523 14.4127 113.531 16.028H107.118ZM115.743 13.7136V8.31342H137.199V13.7136H129.773V33H123.168V13.7136H115.743ZM139.721 33V8.31342H157.513V13.7136H146.423V17.9566H156.596V23.3568H146.423V27.5998H157.464V33H139.721ZM160.836 33V8.31342H171.492C173.324 8.31342 174.928 8.64691 176.302 9.3139C177.676 9.98089 178.745 10.9412 179.508 12.1948C180.272 13.4484 180.653 14.9512 180.653 16.703C180.653 18.4709 180.259 19.9616 179.472 21.175C178.692 22.3885 177.596 23.3046 176.181 23.9233C174.775 24.5421 173.132 24.8515 171.251 24.8515H164.887V19.6442H169.901C170.689 19.6442 171.36 19.5477 171.914 19.3549C172.477 19.154 172.907 18.8366 173.204 18.4026C173.509 17.9687 173.662 17.4021 173.662 16.703C173.662 15.9958 173.509 15.4213 173.204 14.9793C172.907 14.5293 172.477 14.1998 171.914 13.9909C171.36 13.7739 170.689 13.6654 169.901 13.6654H167.539V33H160.836ZM175.301 21.6692L181.473 33H174.192L168.165 21.6692H175.301Z" fill="white"/>
<path d="M74.5794 45.1108V36.4705H80.4015V37.9767H76.4062V40.0355H80.1019V41.5417H76.4062V43.6047H80.4183V45.1108H74.5794ZM89.0808 36.4705V45.1108H87.5029L83.7439 39.6727H83.6806V45.1108H81.8538V36.4705H83.457L87.1865 41.9045H87.2625V36.4705H89.0808ZM90.261 37.9767V36.4705H97.3572V37.9767H94.712V45.1108H92.9063V37.9767H90.261ZM98.5259 45.1108V36.4705H104.348V37.9767H100.353V40.0355H104.048V41.5417H100.353V43.6047H104.365V45.1108H98.5259ZM105.8 45.1108V36.4705H109.209C109.862 36.4705 110.419 36.5873 110.88 36.8207C111.344 37.0513 111.697 37.379 111.939 37.8037C112.183 38.2256 112.306 38.722 112.306 39.293C112.306 39.8667 112.182 40.3604 111.935 40.7738C111.687 41.1845 111.328 41.4995 110.859 41.7188C110.392 41.9382 109.827 42.0479 109.163 42.0479H106.88V40.5797H108.867C109.216 40.5797 109.506 40.5319 109.737 40.4363C109.967 40.3407 110.139 40.1972 110.251 40.006C110.367 39.8147 110.424 39.5771 110.424 39.293C110.424 39.0061 110.367 38.7642 110.251 38.5673C110.139 38.3704 109.966 38.2214 109.732 38.1201C109.502 38.0161 109.211 37.964 108.859 37.964H107.627V45.1108H105.8ZM110.466 41.1788L112.614 45.1108H110.597L108.496 41.1788H110.466ZM113.597 45.1108V36.4705H117.006C117.661 36.4705 118.219 36.5957 118.681 36.846C119.142 37.0935 119.493 37.4381 119.735 37.8796C119.98 38.3184 120.102 38.8247 120.102 39.3985C120.102 39.9722 119.979 40.4785 119.731 40.9173C119.484 41.356 119.125 41.6978 118.655 41.9424C118.188 42.1871 117.623 42.3095 116.959 42.3095H114.787V40.8455H116.664C117.016 40.8455 117.305 40.7851 117.533 40.6641C117.764 40.5404 117.935 40.3702 118.048 40.1536C118.163 39.9343 118.221 39.6825 118.221 39.3985C118.221 39.1116 118.163 38.8612 118.048 38.6475C117.935 38.4309 117.764 38.2636 117.533 38.1454C117.302 38.0245 117.01 37.964 116.656 37.964H115.424V45.1108H113.597ZM121.289 45.1108V36.4705H124.698C125.35 36.4705 125.907 36.5873 126.368 36.8207C126.833 37.0513 127.186 37.379 127.427 37.8037C127.672 38.2256 127.794 38.722 127.794 39.293C127.794 39.8667 127.671 40.3604 127.423 40.7738C127.176 41.1845 126.817 41.4995 126.347 41.7188C125.88 41.9382 125.315 42.0479 124.651 42.0479H122.369V40.5797H124.356C124.705 40.5797 124.995 40.5319 125.225 40.4363C125.456 40.3407 125.627 40.1972 125.74 40.006C125.855 39.8147 125.913 39.5771 125.913 39.293C125.913 39.0061 125.855 38.7642 125.74 38.5673C125.627 38.3704 125.454 38.2214 125.221 38.1201C124.99 38.0161 124.699 37.964 124.348 37.964H123.116V45.1108H121.289ZM125.955 41.1788L128.102 45.1108H126.086L123.985 41.1788H125.955ZM130.912 36.4705V45.1108H129.085V36.4705H130.912ZM137.102 38.9555C137.069 38.6151 136.924 38.3508 136.668 38.1623C136.412 37.9739 136.065 37.8796 135.626 37.8796C135.328 37.8796 135.076 37.9218 134.871 38.0062C134.665 38.0878 134.508 38.2017 134.398 38.3479C134.291 38.4942 134.238 38.6601 134.238 38.8458C134.232 39.0005 134.264 39.1355 134.335 39.2508C134.408 39.3661 134.508 39.466 134.634 39.5503C134.761 39.6319 134.907 39.7036 135.073 39.7655C135.239 39.8246 135.416 39.8752 135.605 39.9174L136.381 40.103C136.758 40.1874 137.104 40.2999 137.419 40.4405C137.734 40.5811 138.007 40.7541 138.237 40.9594C138.468 41.1648 138.647 41.4066 138.773 41.6851C138.902 41.9635 138.969 42.2828 138.971 42.6428C138.969 43.1716 138.834 43.63 138.566 44.0181C138.302 44.4035 137.919 44.703 137.419 44.9168C136.921 45.1277 136.321 45.2332 135.617 45.2332C134.92 45.2332 134.312 45.1263 133.795 44.9126C133.28 44.6988 132.878 44.3824 132.588 43.9633C132.301 43.5414 132.151 43.0197 132.137 42.3981H133.904C133.924 42.6878 134.007 42.9297 134.153 43.1237C134.302 43.315 134.501 43.4598 134.748 43.5583C134.999 43.6539 135.281 43.7017 135.596 43.7017C135.906 43.7017 136.174 43.6567 136.402 43.5667C136.633 43.4767 136.811 43.3516 136.938 43.1912C137.064 43.0309 137.128 42.8467 137.128 42.6386C137.128 42.4445 137.07 42.2814 136.955 42.1492C136.842 42.017 136.676 41.9045 136.457 41.8117C136.24 41.7188 135.975 41.6345 135.66 41.5585L134.719 41.3223C133.99 41.1451 133.415 40.868 132.993 40.4911C132.571 40.1143 132.362 39.6066 132.365 38.9681C132.362 38.445 132.501 37.9879 132.782 37.597C133.066 37.206 133.456 36.9009 133.951 36.6815C134.446 36.4621 135.008 36.3524 135.638 36.3524C136.28 36.3524 136.839 36.4621 137.318 36.6815C137.799 36.9009 138.173 37.206 138.44 37.597C138.707 37.9879 138.845 38.4408 138.853 38.9555H137.102ZM140.2 45.1108V36.4705H146.022V37.9767H142.027V40.0355H145.723V41.5417H142.027V43.6047H146.039V45.1108H140.2Z" fill="white"/>
<rect x="38.1872" y="39.1025" width="28.8524" height="3.3279" rx="1.2729" fill="#F5C400"/>
<rect x="152.748" y="39.1025" width="28.8524" height="3.3279" rx="1.2729" fill="#F5C400"/>
</svg>
