<svg width="93" height="72" viewBox="0 0 93 72" fill="none" xmlns="http://www.w3.org/2000/svg">
<path d="M5.80574 71.8254C3.05381 71.2838 0.801417 69.0548 0.215455 66.2932C-0.0718184 64.9393 -0.0718184 7.08474 0.215455 5.73085C0.816899 2.89617 3.04935 0.736925 5.94677 0.187444C7.2646 -0.0624812 84.9368 -0.0624812 86.2546 0.187444C89.152 0.736925 91.3845 2.89617 91.9859 5.73085C92.2732 7.08474 92.2732 64.9393 91.9859 66.2932C91.3845 69.1279 89.152 71.2871 86.2546 71.8366C85.0678 72.0617 6.95109 72.0508 5.80574 71.8254V71.8254ZM86.5182 69.0194C87.0357 68.843 87.6993 68.4151 88.1424 67.9721C89.5888 66.5256 89.4879 68.635 89.4879 39.8506V14.2284H46.1007H2.71348V39.8506C2.71348 68.6413 2.612 66.5251 4.06221 67.9753C5.4931 69.4062 1.74103 69.2874 46.0236 69.3033C82.4523 69.3164 85.7136 69.2935 86.5182 69.0194ZM52.3278 63.178C50.7408 62.7996 49.4349 61.4098 49.2246 59.8754L49.1122 59.0558H48.3355C46.227 59.0558 44.6243 58.2248 43.8273 56.7182C43.4012 55.9128 43.4002 55.8961 43.4002 49.562V43.2132H41.78H40.1597V45.8783C40.1597 48.3875 40.1323 48.5984 39.6917 49.4826C39.1109 50.648 38.0309 51.4344 36.6639 51.6871C36.0438 51.8017 31.2867 51.8499 23.8318 51.8169C12.8694 51.7685 11.9313 51.7404 11.2649 51.44C10.3542 51.0295 9.62955 50.3443 9.13307 49.4242C8.75418 48.7221 8.74448 48.5312 8.74448 41.773C8.74448 34.9703 8.75188 34.8281 9.14166 34.0993C9.59091 33.2595 10.4476 32.473 11.3041 32.1141C11.7717 31.9181 14.3063 31.8721 24.4463 31.8753C36.2459 31.879 37.0529 31.8993 37.7293 32.2096C38.1254 32.3913 38.6797 32.7726 38.9612 33.057C39.9642 34.0704 40.0627 34.4392 40.1597 37.5423L40.2497 40.4227H41.78H43.3102L43.4002 33.9417L43.4902 27.4606L43.9748 26.6363C44.7909 25.2481 46.3771 24.4901 48.4657 24.4901C49.1076 24.4901 49.1612 24.4512 49.1612 23.9854C49.1612 23.7078 49.3718 23.058 49.6292 22.5414C50.2093 21.3773 51.2903 20.5896 52.6531 20.3376C53.2729 20.2231 58.5343 20.1752 66.9255 20.2078C79.2808 20.2558 80.267 20.2822 80.9365 20.584C81.8472 20.9945 82.5718 21.6797 83.0683 22.5998C83.4157 23.2436 83.4569 23.5981 83.4569 25.9445C83.4569 28.5528 83.4535 28.5745 82.9109 29.4521C82.6106 29.9378 82.003 30.5796 81.5607 30.8782L80.7564 31.4212L66.6241 31.4719C51.0198 31.5279 51.6416 31.5693 50.4395 30.394C49.7173 29.6879 49.3567 29.0077 49.1874 28.0319L49.057 27.2806L48.0285 27.2851C47.1501 27.289 46.9277 27.3619 46.5053 27.7841L46.0107 28.2785V34.3506V40.4227H47.5359H49.0612L49.1895 39.6714C49.3558 38.6974 49.716 38.0166 50.4395 37.3093C51.6403 36.1353 51.0187 36.1766 66.6537 36.2319L80.8156 36.2821L81.5919 36.8277C82.0189 37.1278 82.6131 37.7696 82.9125 38.2538C83.4532 39.1283 83.4569 39.1523 83.4569 41.7589C83.4569 44.1052 83.4157 44.4597 83.0683 45.1035C82.5718 46.0236 81.8472 46.7088 80.9365 47.1193C80.267 47.4211 79.2808 47.4475 66.9255 47.4955C58.5343 47.5281 53.2729 47.4802 52.6531 47.3657C51.2903 47.1137 50.2093 46.326 49.6292 45.1619C49.3718 44.6453 49.1612 43.9956 49.1612 43.718V43.2132H47.5409H45.9207L45.9225 48.8391C45.9225 52.2582 45.9986 54.7355 46.1149 55.1546C46.3438 55.9788 47.1512 56.4055 48.3198 56.3199C49.0406 56.2671 49.0678 56.2419 49.1912 55.514C49.3566 54.5383 49.7103 53.8803 50.4519 53.169C51.6886 51.9826 50.9604 52.0347 66.3136 52.0347H80.2364L81.1884 52.5091C83.0378 53.4307 83.6414 54.9216 83.5154 58.2569C83.4171 60.8589 82.8453 61.9655 81.1172 62.898C80.399 63.2855 80.3618 63.2866 66.7148 63.3162C58.7631 63.3334 52.7377 63.2755 52.3285 63.178H52.3278ZM80.3464 60.1763C80.7044 59.8186 80.7644 59.549 80.8191 58.0535C80.8919 56.0625 80.8057 55.5991 80.2702 55.1002C79.8838 54.7402 79.6911 54.7351 66.3444 54.7351C50.1541 54.7351 51.8616 54.4063 51.8616 57.5239C51.8616 58.6473 51.9143 59.7036 51.9786 59.8713C52.2801 60.657 52.488 60.6678 66.5741 60.6259L79.9364 60.5861L80.3464 60.1763ZM36.9948 48.6277L37.4592 48.1913V41.773V35.3547L36.9948 34.9182L36.5303 34.4818L24.8878 34.4269C16.8414 34.389 13.037 34.4328 12.5712 34.5688C11.3766 34.9176 11.3549 35.0459 11.3549 41.7523C11.3549 45.245 11.4285 47.884 11.5336 48.1604C11.9105 49.1519 11.8514 49.1476 24.7077 49.1042L36.5302 49.0642L36.9948 48.6277ZM79.8632 44.5721C80.675 44.2329 80.8465 43.7413 80.8465 41.7523C80.8465 39.7362 80.5958 39.1643 79.5938 38.8945C79.1152 38.7656 74.6306 38.7195 65.8372 38.7529L52.7906 38.8025L52.3262 39.2389C51.8784 39.6596 51.8616 39.751 51.8616 41.773C51.8616 43.719 51.8909 43.8972 52.2667 44.2391C52.4895 44.4418 52.7933 44.652 52.9418 44.7063C53.0903 44.7606 59.0677 44.8114 66.2248 44.8193C77.215 44.8313 79.335 44.7929 79.8632 44.5721ZM80.0283 28.699C80.5935 28.4821 80.8465 27.6325 80.8465 25.951C80.8465 25.0614 80.766 24.1218 80.6676 23.863C80.2821 22.849 80.429 22.8586 66.006 22.9114L52.7907 22.9598L52.3262 23.3963C51.879 23.8164 51.8616 23.9102 51.8616 25.9051C51.8616 27.7851 51.898 28.0162 52.2531 28.3941L52.6445 28.8108H66.1907C73.6411 28.8108 79.868 28.7605 80.0283 28.699ZM89.4879 9.0396C89.4879 6.04919 89.2471 5.15669 88.1424 4.05197C86.6751 2.58464 90.4823 2.70648 46.1007 2.70648C1.71905 2.70648 5.52631 2.58464 4.05898 4.05197C2.95426 5.15669 2.71348 6.04919 2.71348 9.0396V11.5279H46.1007H89.4879V9.0396ZM6.21589 8.02555C5.72444 7.5341 5.67784 7.25518 5.97738 6.59777C6.55792 5.32361 8.47444 5.78858 8.47444 7.20358C8.47444 7.73013 7.68675 8.46744 7.12421 8.46744C6.86767 8.46744 6.45893 8.26859 6.21589 8.02555ZM10.7599 8.26741C10.2624 7.978 10.0415 7.23017 10.2821 6.64948C10.6783 5.69286 12.1289 5.57865 12.6042 6.46666C13.2485 7.67051 11.9362 8.95175 10.7599 8.26741ZM15.0806 8.26741C14.2256 7.77004 14.3597 6.34296 15.2979 5.95434C16.6314 5.40198 17.7472 7.09142 16.6992 8.076C16.252 8.49612 15.6052 8.57261 15.0806 8.26741ZM20.8415 8.26741C20.0398 7.80101 20.1414 6.36483 21.0039 5.97184C21.6444 5.68002 76.3148 5.67859 76.9552 5.9704C77.8686 6.38658 77.9498 7.81436 77.0863 8.27649C76.5882 8.54305 21.3 8.53415 20.8415 8.26743V8.26741ZM81.2196 7.99309C80.7545 7.40178 80.7448 6.8327 81.1904 6.28202C81.501 5.89819 81.7026 5.85093 83.2707 5.79428C85.2145 5.72406 85.9124 5.91393 86.224 6.59777C86.5235 7.25518 86.4769 7.5341 85.9855 8.02555C85.57 8.44102 85.4255 8.46744 83.5681 8.46744C81.6485 8.46744 81.5822 8.45405 81.2196 7.99309Z" fill="#013441"/>
</svg>
