<svg width="94" height="72" viewBox="0 0 94 72" fill="none" xmlns="http://www.w3.org/2000/svg">
<path d="M47.7672 70.2833C48.0476 68.193 48.88 67.5198 51.1841 67.5198H52.9391V65.8906V64.2614H47.6442C42.6209 64.2614 42.3494 64.2196 42.3494 63.4468C42.3494 62.6413 42.6209 62.6322 66.7538 62.6322C80.1762 62.6322 91.4481 62.521 91.8024 62.385C92.3788 62.1638 92.4467 59.8455 92.4467 40.3911V18.6444H61.8996H31.3524V22.1064C31.3524 25.2969 31.2885 25.5684 30.5378 25.5684C29.7846 25.5684 29.7233 25.2969 29.7233 21.9659C29.7233 18.993 29.8535 18.2455 30.4681 17.6893C31.1475 17.0745 33.9137 17.0157 61.9316 17.0214C80.5768 17.0251 92.8905 17.1794 93.2613 17.4138C93.7923 17.7495 93.8722 20.7542 93.8722 40.3993C93.8722 57.1838 93.749 63.122 93.393 63.4779C93.0602 63.8108 89.5452 64.0217 81.8869 64.1684L70.86 64.3795V65.9496V67.5198H72.6023C75.0749 67.5198 76.1549 68.3936 76.1549 70.3939V72H61.8459H47.537L47.7672 70.2833ZM74.5257 69.7599C74.5257 69.2299 72.8513 69.1489 61.8996 69.1489C50.9478 69.1489 49.2734 69.2299 49.2734 69.7599C49.2734 70.2898 50.9478 70.3708 61.8996 70.3708C72.8513 70.3708 74.5257 70.2898 74.5257 69.7599ZM69.2364 66.807C69.2405 66.415 69.3526 65.6818 69.4876 65.1778L69.7332 64.2614H62.1507H54.5682V65.8906V67.5198H61.8996C68.6081 67.5198 69.2314 67.4592 69.2364 66.807ZM18.6309 69.5898L17.3008 68.4015V49.3955V30.3895L18.6309 29.2008L19.9611 28.0122H28.074C32.5361 28.0122 36.6476 28.1873 37.2104 28.4013C38.8418 29.0215 39.4929 30.4612 39.7705 34.0626C40.0174 37.2641 39.9958 37.3799 39.1514 37.3799C38.3677 37.3799 38.2762 37.1569 38.2742 35.2416C38.2701 32.1376 37.6129 30.101 36.5272 29.8344C36.0332 29.7131 32.0603 29.6659 27.6985 29.7294L19.7679 29.845L19.2531 30.8632C18.8619 31.637 18.7369 36.1594 18.7323 49.7006C18.7266 66.9809 18.751 67.5444 19.5409 68.3343C20.3009 69.0944 20.894 69.1485 28.3995 69.1427C32.8238 69.1395 36.686 68.9828 36.9822 68.795C37.8955 68.2159 38.2567 65.5304 38.2668 59.2422C38.2757 53.7126 38.3364 53.2166 38.9892 53.3465C39.6398 53.476 39.695 54.1221 39.6213 60.747C39.5337 68.6197 39.2889 69.5988 37.2104 70.389C36.6476 70.603 32.5361 70.7781 28.074 70.7781H19.9611L18.6309 69.5898ZM26.7317 67.5895C25.6959 66.445 25.8626 64.408 27.0559 63.6261C28.7505 62.5157 30.9451 63.7743 30.9451 65.8565C30.9451 68.0359 28.169 69.1777 26.7317 67.5895ZM29.1123 65.6814C29.1123 64.5417 27.9194 64.668 27.7555 65.825C27.6509 66.5638 27.7881 66.7454 28.3665 66.634C28.7909 66.5523 29.1123 66.1417 29.1123 65.6814ZM19.9482 48.3686V34.105L28.3995 34.2151L36.8509 34.3252L36.9861 35.5096C37.1963 37.3526 36.6848 39.4164 36.0179 39.4164C35.5872 39.4164 35.4254 38.9159 35.4254 37.5836V35.7508H28.5014H21.5774V48.3769V61.003H28.5014H35.4254V57.1039C35.4254 53.6099 35.4994 53.2189 36.1382 53.3413C36.7582 53.4601 36.8659 54.0735 36.9661 58.055L37.0813 62.6322H28.5147H19.9482V48.3686ZM59.0726 60.2125C58.0766 59.2165 57.975 57.2471 58.8733 56.3489C61.3589 53.8633 65.3159 56.9163 63.2361 59.7148C62.182 61.1331 60.2269 61.3668 59.0726 60.2125ZM61.8996 58.7629C62.3041 58.2755 62.3041 58.0284 61.8996 57.541C60.8817 56.3146 59.431 57.253 60.0104 58.7629C60.1394 59.0989 60.503 59.3739 60.8187 59.3739C61.1343 59.3739 61.6207 59.0989 61.8996 58.7629ZM22.7992 53.6717C22.7992 52.8974 23.0708 52.8571 28.2977 52.8571C33.5247 52.8571 33.7962 52.8974 33.7962 53.6717C33.7962 54.4461 33.5247 54.4863 28.2977 54.4863C23.0708 54.4863 22.7992 54.4461 22.7992 53.6717ZM42.3494 53.2644C42.3494 52.4594 42.6209 52.4498 65.5652 52.4498H88.781V37.3799V22.31H62.1032H35.4254V23.9392C35.4254 25.2969 35.2896 25.5684 34.6108 25.5684C33.8867 25.5684 33.7962 25.2969 33.7962 23.1246V20.6808H62.1032H90.4102V37.3799V54.079H66.3798C42.6209 54.079 42.3494 54.0698 42.3494 53.2644ZM22.7992 50.8207C22.7992 50.0463 23.0708 50.0061 28.2977 50.0061C33.5247 50.0061 33.7962 50.0463 33.7962 50.8207C33.7962 51.595 33.5247 51.6352 28.2977 51.6352C23.0708 51.6352 22.7992 51.595 22.7992 50.8207ZM22.7992 47.563C22.7992 46.762 23.0665 46.7477 38.0728 46.7477C52.837 46.7477 53.3464 46.7737 53.3464 47.526C53.3464 48.2776 52.8241 48.3054 38.0728 48.3412C23.0542 48.3776 22.7992 48.3646 22.7992 47.563ZM56.4867 48.1231C56.3276 47.964 56.1974 47.5895 56.1974 47.2908C56.1974 46.8933 56.9152 46.7477 58.8747 46.7477C61.2047 46.7477 61.5344 46.8402 61.4163 47.4605C61.3101 48.0187 60.7922 48.1992 59.0284 48.2928C57.7896 48.3586 56.6459 48.2823 56.4867 48.1231ZM64.3433 47.5826C64.3433 46.8326 64.5948 46.7477 66.817 46.7477C68.953 46.7477 69.2721 46.845 69.1549 47.4605C69.048 48.0227 68.5256 48.199 66.6814 48.2954C64.5562 48.4064 64.3433 48.3415 64.3433 47.5826ZM71.9462 48.1054C71.7968 47.956 71.6746 47.5895 71.6746 47.2908C71.6746 46.8939 72.3874 46.7477 74.3221 46.7477C76.6979 46.7477 76.9695 46.8313 76.9695 47.5623C76.9695 48.2838 76.698 48.3769 74.5936 48.3769C73.2869 48.3769 72.0955 48.2547 71.9462 48.1054ZM22.3919 40.8419V36.9726H28.2977H34.2035V40.8419V44.7112H28.2977H22.3919V40.8419ZM32.5743 40.8419V38.6018H28.2977H24.0211V40.8419V43.0821H28.2977H32.5743V40.8419ZM36.24 43.4894C36.24 42.6897 36.5116 42.6748 51.0682 42.6748C65.6958 42.6748 65.8934 42.6858 65.6832 43.4894C65.4752 44.2849 65.1277 44.304 50.8551 44.304C36.5115 44.304 36.24 44.2888 36.24 43.4894ZM68.6199 39.4164V34.9362H73.202H77.7841V39.4164V43.8967H73.202H68.6199V39.4164ZM76.1549 39.4164V36.5653H73.1002H70.0455V39.4164V42.2675H73.1002H76.1549V39.4164ZM6.1448 40.5957L3.94932 38.1615L5.2782 36.311C6.41639 34.7262 6.54352 34.3211 6.16409 33.4883C5.77076 32.6251 5.48372 32.5261 3.60397 32.606L1.48686 32.696L0.748087 29.845C0.34177 28.2769 0.0051525 26.763 2.05827e-05 26.4808C-0.00486696 26.1987 0.861316 25.5556 1.92537 25.0517C3.44609 24.3317 3.88748 23.8984 3.9882 23.0267C4.09894 22.0684 3.86867 21.7974 2.29419 21.0325C1.29204 20.5456 0.537109 19.9465 0.616532 19.7013C0.695954 19.456 1.14758 17.9186 1.6202 16.2847L2.47954 13.3142L4.81527 13.5784C6.73681 13.7958 7.25352 13.7192 7.72883 13.1465C8.33338 12.4181 8.26343 12.2041 6.51406 9.43002C6.00864 8.6286 6.15933 8.38603 8.56937 6.12077L11.17 3.67633L12.9703 5.05092C13.9604 5.80695 14.9732 6.42271 15.221 6.41928C16.4131 6.40279 16.7712 5.67483 16.63 3.55488L16.4862 1.39519L19.3372 0.661292C23.411 -0.387346 23.3974 -0.391331 24.4284 2.14892C25.6576 5.17734 26.7428 5.23763 28.0941 2.35257C28.6187 1.23251 29.1541 0.319571 29.2837 0.323815C29.4135 0.328051 30.8942 0.759191 32.5743 1.28189L35.629 2.23226L35.5391 4.64566C35.4623 6.70837 35.573 7.13633 36.3008 7.59084C37.051 8.05936 37.3565 7.97596 38.869 6.88977L40.5857 5.65692L43.1558 8.25003L45.7258 10.8431L44.3922 12.527C43.557 13.5815 42.8375 14.126 42.467 13.9838C42.1417 13.859 41.7771 13.7568 41.6568 13.7568C41.5365 13.7568 41.9072 13.1419 42.4805 12.3903L43.5228 11.0237L41.9353 9.47356L40.3478 7.92339L38.7012 9.01306L37.0546 10.1027L35.3792 8.99406L33.704 7.8854L33.9583 5.72157C34.2033 3.63667 34.1716 3.54211 33.088 3.12916C30.3013 2.06717 29.9839 2.15035 28.9861 4.20398C28.0781 6.07296 28.02 6.11267 26.5476 5.86926C25.7181 5.73211 24.8347 5.61788 24.5845 5.61542C24.3344 5.61297 23.7405 4.67424 23.2647 3.5294C22.6608 2.07616 22.2228 1.51573 21.8138 1.67269C21.4916 1.79634 20.5734 2.02029 19.7735 2.17036L18.319 2.44322V4.64332C18.319 6.8386 18.3149 6.84529 16.5342 7.71051L14.7495 8.57762L13.1125 7.26207C11.3052 5.80973 10.7936 5.8769 8.99198 7.80311L8.01446 8.84821L9.14765 10.5606C10.047 11.9196 10.1851 12.4051 9.81671 12.9131C9.56146 13.2651 9.14125 13.9656 8.8829 14.4696C8.47658 15.2624 8.09092 15.386 6.02468 15.386C3.84072 15.386 3.60252 15.4747 3.24227 16.4222C2.23475 19.0722 2.27559 19.2194 4.28954 20.1979C5.89156 20.9762 6.14932 21.2599 5.94547 22.0203C5.81265 22.5157 5.70153 23.4315 5.69847 24.0555C5.69358 25.0151 5.40187 25.3148 3.80588 25.9989L1.91886 26.8078L2.17357 28.6656C2.3136 29.6874 2.53486 30.6961 2.66524 30.907C2.79626 31.119 3.75468 31.1775 4.80831 31.0377L6.71437 30.7848L7.6362 32.6823L8.55804 34.5797L7.25546 36.3935L5.95283 38.2074L7.3283 39.6265C8.08481 40.407 8.86078 41.0456 9.05274 41.0456C9.2447 41.0456 10.0626 40.5965 10.8704 40.0476C12.3719 39.0273 12.6841 39.0536 14.4141 40.3459C14.9028 40.711 15.0952 41.1827 14.9305 41.6119C14.689 42.2412 14.569 42.2448 13.4308 41.6562C12.2487 41.0449 12.1332 41.0624 10.8394 42.0492C10.0946 42.6173 9.22766 43.0703 8.91278 43.056C8.5979 43.0417 7.3523 41.9345 6.1448 40.5957ZM48.4588 39.2128C48.4588 38.6891 49.6807 38.6018 57.012 38.6018C64.3433 38.6018 65.5652 38.6891 65.5652 39.2128C65.5652 39.7364 64.3433 39.8237 57.012 39.8237C49.6807 39.8237 48.4588 39.7364 48.4588 39.2128ZM48.4588 36.6287C48.4588 35.7569 48.5201 35.7508 57.2029 35.7508C64.8081 35.7508 65.9165 35.8303 65.7125 36.3617C65.5368 36.8197 64.8008 36.973 62.7724 36.9741C61.2843 36.9749 57.455 37.0951 54.2628 37.2411C48.5086 37.5044 48.4588 37.4991 48.4588 36.6287ZM13.1051 33.4088C10.8342 30.1856 10.3873 28.7654 10.382 24.7538C10.3775 21.4051 10.5231 20.5723 11.4643 18.5643C14.4937 12.1016 21.8907 8.72549 28.7356 10.6815C31.9402 11.5973 34.4281 13.1991 33.8075 13.9468C33.4351 14.3956 32.9196 14.2704 30.9424 13.2507C24.2769 9.81297 16.4144 12.3959 13.0501 19.1286C11.0081 23.215 11.4342 28.4981 14.0863 31.9752C15.0687 33.2633 15.168 34.5289 14.2866 34.5289C14.0708 34.5289 13.5391 34.0248 13.1051 33.4088ZM47.6442 29.4377V25.5684H62.7141H77.7841V29.4377V33.307H62.7141H47.6442V29.4377ZM76.1549 29.4377V27.1976H62.7141H49.2734V29.4377V31.6778H62.7141H76.1549V29.4377ZM24.4284 31.6778C24.4284 30.9271 24.7 30.8632 27.8904 30.8632C31.0809 30.8632 31.3524 30.9271 31.3524 31.6778C31.3524 32.4285 31.0809 32.4924 27.8904 32.4924C24.7 32.4924 24.4284 32.4285 24.4284 31.6778ZM51.3099 11.924C51.3099 11.0642 51.1198 10.9058 50.088 10.9058C49.1377 10.9058 48.8661 10.7247 48.8661 10.0912C48.8661 9.4576 49.1377 9.27659 50.088 9.27659C51.1741 9.27659 51.3099 9.14082 51.3099 8.0547C51.3099 7.10435 51.4909 6.83282 52.1245 6.83282C52.7581 6.83282 52.9391 7.10435 52.9391 8.0547C52.9391 9.08651 53.0975 9.27659 53.9573 9.27659C54.704 9.27659 54.9755 9.49381 54.9755 10.0912C54.9755 10.6885 54.704 10.9058 53.9573 10.9058C53.1427 10.9058 52.9391 11.1094 52.9391 11.924C52.9391 12.6707 52.7219 12.9422 52.1245 12.9422C51.5271 12.9422 51.3099 12.6707 51.3099 11.924Z" fill="#013441"/>
</svg>
