<svg width="356" height="89" viewBox="0 0 356 89" fill="none" xmlns="http://www.w3.org/2000/svg">
<g clip-path="url(#clip0_981_2885)">
<path d="M57.8856 44.3312C60.7847 41.9168 62.6283 38.2903 62.6283 34.2356C62.6283 30.181 60.7847 26.5546 57.8856 24.1402C58.2178 23.9802 58.5376 23.8065 58.8422 23.6183C60.7652 22.4292 63.0349 21.7425 65.466 21.7425C72.4041 21.7425 78.0285 27.336 78.0285 34.2356C78.0285 41.1354 72.4041 46.7287 65.466 46.7287C63.0349 46.7287 60.7652 46.042 58.8422 44.853C58.5376 44.6648 58.2178 44.4912 57.8856 44.3312Z" fill="url(#paint0_linear_981_2885)"/>
<path d="M54.3966 36.2025C55.6934 32.6701 55.4668 28.6128 53.4281 25.1013C51.3894 21.5899 47.9695 19.366 44.2449 18.7167C44.4522 18.4129 44.6417 18.1035 44.8107 17.7891C45.8784 15.8031 47.4988 14.0798 49.6041 12.871C55.6128 9.42109 63.2961 11.4684 66.765 17.4438C70.234 23.4192 68.1754 31.0599 62.1667 34.5097C60.0614 35.7186 57.7504 36.2524 55.4872 36.179C55.1289 36.1672 54.7646 36.176 54.3966 36.2025Z" fill="url(#paint1_linear_981_2885)"/>
<path d="M47.2873 30.8976C46.6343 27.1936 44.3981 23.7925 40.8671 21.7652C37.3362 19.7378 33.2563 19.5125 29.7042 20.8021C29.7312 20.436 29.7397 20.0738 29.7279 19.7175C29.6541 17.4667 30.1909 15.1685 31.4064 13.0748C34.8756 7.09939 42.5587 5.05207 48.5673 8.50196C54.5758 11.9519 56.6347 19.5926 53.1655 25.568C51.9499 27.6617 50.2171 29.2732 48.22 30.3349C47.904 30.503 47.5928 30.6914 47.2873 30.8976Z" fill="url(#paint2_linear_981_2885)"/>
<path d="M38.4627 29.8383C36.0349 26.9552 32.3883 25.1218 28.311 25.1218C24.2337 25.1218 20.5872 26.9552 18.1594 29.8383C17.9986 29.5079 17.8239 29.1899 17.6346 28.887C16.439 26.9746 15.7484 24.7174 15.7484 22.2998C15.7484 15.4 21.3729 9.80658 28.311 9.80658C35.2491 9.80658 40.8735 15.4 40.8735 22.2998C40.8735 24.7174 40.183 26.9746 38.9874 28.887C38.798 29.1899 38.6234 29.5079 38.4627 29.8383Z" fill="url(#paint3_linear_981_2885)"/>
<path d="M30.2869 33.3085C26.7348 32.0188 22.6549 32.2442 19.1239 34.2714C15.5929 36.2987 13.3567 39.6998 12.7038 43.4038C12.3984 43.1976 12.0873 43.0092 11.771 42.8411C9.77408 41.7794 8.04115 40.1679 6.82562 38.0742C3.35654 32.0987 5.41523 24.4581 11.4238 21.0082C17.4324 17.5583 25.1155 19.6056 28.5847 25.5811C29.8003 27.6747 30.3371 29.973 30.263 32.2236C30.2514 32.5799 30.26 32.9422 30.2869 33.3085Z" fill="url(#paint4_linear_981_2885)"/>
<path d="M24.9503 40.3789C21.2256 41.0283 17.8056 43.2521 15.767 46.7636C13.7284 50.275 13.5018 54.3324 14.7987 57.8648C14.4305 57.838 14.0662 57.8295 13.7078 57.841C11.4446 57.9147 9.13363 57.3808 7.02827 56.172C1.01967 52.722 -1.03902 45.0814 2.43004 39.1059C5.89909 33.1307 13.5822 31.0832 19.5908 34.5332C21.6962 35.742 23.3166 37.4653 24.3842 39.4511C24.5532 39.7656 24.7429 40.0751 24.9503 40.3789Z" fill="url(#paint5_linear_981_2885)"/>
<path d="M23.883 49.1553C20.9839 51.5697 19.1402 55.1962 19.1402 59.2507C19.1402 63.3055 20.9839 66.9319 23.883 69.3463C23.5508 69.5061 23.231 69.68 22.9265 69.8682C21.0035 71.0572 18.7337 71.7439 16.3026 71.7439C9.36451 71.7439 3.74005 66.1506 3.74005 59.2507C3.74005 52.3509 9.36451 46.7576 16.3026 46.7576C18.7337 46.7576 21.0035 47.4443 22.9265 48.6335C23.231 48.8217 23.5508 48.9953 23.883 49.1553Z" fill="url(#paint6_linear_981_2885)"/>
<path d="M27.3714 57.2863C26.0743 60.8187 26.301 64.876 28.3396 68.3875C30.3783 71.8992 33.7982 74.1228 37.5229 74.7722C37.3155 75.076 37.126 75.3855 36.957 75.7C35.8894 77.6858 34.2689 79.4091 32.1636 80.6179C26.1549 84.0679 18.4718 82.0204 15.0027 76.0452C11.5337 70.0697 13.5924 62.4291 19.6009 58.9791C21.7063 57.7702 24.0173 57.2364 26.2805 57.31C26.6388 57.3216 27.0031 57.313 27.3714 57.2863Z" fill="url(#paint7_linear_981_2885)"/>
<path d="M34.4808 62.5934C35.1338 66.2975 37.37 69.6985 40.901 71.7257C44.4319 73.7531 48.512 73.9785 52.0641 72.6888C52.0372 73.0551 52.0286 73.4171 52.0402 73.7737C52.1143 76.0243 51.5774 78.3226 50.3619 80.4162C46.8927 86.3917 39.2097 88.439 33.201 84.989C27.1923 81.5392 25.1337 73.8986 28.6029 67.9231C29.8184 65.8294 31.5513 64.2179 33.5481 63.1562C33.8644 62.9881 34.1755 62.7994 34.4808 62.5934Z" fill="url(#paint8_linear_981_2885)"/>
<path d="M43.306 63.6547C45.7338 66.5379 49.3804 68.3713 53.4577 68.3713C57.535 68.3713 61.1816 66.5379 63.6094 63.6547C63.7701 63.9852 63.9447 64.3031 64.1342 64.6058C65.3297 66.5182 66.0203 68.7756 66.0203 71.1932C66.0203 78.0931 60.3959 83.6864 53.4577 83.6864C46.5196 83.6864 40.8951 78.0931 40.8951 71.1932C40.8951 68.7756 41.5857 66.5182 42.7812 64.6058C42.9707 64.3031 43.1453 63.9852 43.306 63.6547Z" fill="url(#paint9_linear_981_2885)"/>
<path d="M51.4822 60.1857C55.0343 61.4753 59.1142 61.2499 62.6451 59.2228C66.1761 57.1954 68.4124 53.7943 69.0653 50.0903C69.3706 50.2962 69.6818 50.4849 69.998 50.653C71.9951 51.7147 73.7279 53.3262 74.9435 55.4199C78.4127 61.3954 76.3538 69.036 70.3454 72.486C64.3367 75.9358 56.6536 73.8886 53.1844 67.9131C51.9689 65.8194 51.4321 63.5212 51.5059 61.2705C51.5178 60.9142 51.5092 60.5519 51.4822 60.1857Z" fill="url(#paint10_linear_981_2885)"/>
<path d="M66.0096 46.7174C66.0071 46.7218 66.0045 46.7262 66.002 46.7306C63.9635 50.242 60.5436 52.4659 56.819 53.1152C57.0261 53.4191 57.2158 53.7285 57.3848 54.0428C58.4524 56.0288 60.0729 57.7521 62.1782 58.9609C68.1869 62.411 75.8699 60.3635 79.3391 54.3882C82.3131 49.2653 81.2243 42.9185 77.0669 39.0378C75.2405 43.3967 71.0022 46.5059 66.0096 46.7174Z" fill="url(#paint11_linear_981_2885)"/>
<path d="M110.481 23.124V60.4367H102.165V23.124H110.481ZM103.483 60.4367L103.635 53.1254H125.184V60.4367H103.483ZM126.486 47.7805C126.486 45.125 127.043 42.8056 128.159 40.8223C129.274 38.8053 130.846 37.2422 132.874 36.1329C134.902 35.0237 137.268 34.469 139.973 34.469C142.677 34.469 145.026 35.0237 147.02 36.1329C149.048 37.2422 150.62 38.8053 151.735 40.8223C152.851 42.8056 153.409 45.125 153.409 47.7805C153.409 50.4362 152.851 52.7557 151.735 54.739C150.62 56.7223 149.048 58.2684 147.02 59.3777C145.026 60.487 142.677 61.0417 139.973 61.0417C137.268 61.0417 134.902 60.487 132.874 59.3777C130.846 58.2684 129.274 56.7223 128.159 54.739C127.043 52.7557 126.486 50.4362 126.486 47.7805ZM134.344 47.7302C134.344 49.0076 134.581 50.1337 135.054 51.1086C135.527 52.0498 136.187 52.7892 137.032 53.3272C137.877 53.8313 138.857 54.0834 139.973 54.0834C141.088 54.0834 142.068 53.8313 142.913 53.3272C143.758 52.7892 144.4 52.0498 144.84 51.1086C145.313 50.1337 145.55 49.0076 145.55 47.7302C145.55 46.4528 145.313 45.3435 144.84 44.4023C144.4 43.4611 143.758 42.7384 142.913 42.234C142.068 41.6963 141.088 41.4272 139.973 41.4272C138.857 41.4272 137.877 41.6963 137.032 42.234C136.187 42.7384 135.527 43.4611 135.054 44.4023C134.581 45.3435 134.344 46.4528 134.344 47.7302ZM155.172 47.3773C155.172 44.7888 155.696 42.5199 156.744 40.5701C157.791 38.6205 159.228 37.1078 161.053 36.032C162.879 34.9227 164.974 34.3681 167.34 34.3681C169.335 34.3681 171.092 34.7715 172.613 35.5783C174.168 36.3851 175.216 37.444 175.757 38.7549L174.996 39.2592L175.605 35.2255H182.653V58.8231C182.653 61.7813 182.078 64.3361 180.929 66.4875C179.779 68.6723 178.14 70.3531 176.01 71.5296C173.915 72.7061 171.414 73.2945 168.506 73.2945C166.073 73.2945 163.876 72.807 161.915 71.8321C159.988 70.8909 158.417 69.5463 157.2 67.7983C156.017 66.0503 155.307 64.0336 155.07 61.7476H162.98C163.048 63.1931 163.622 64.3024 164.704 65.0757C165.819 65.8488 167.239 66.2353 168.963 66.2353C170.89 66.2353 172.377 65.6975 173.425 64.6217C174.473 63.5796 174.996 62.1847 174.996 60.4367V55.0918L175.706 55.7474C175.166 57.0585 174.118 58.1172 172.563 58.924C171.008 59.7308 169.216 60.1342 167.188 60.1342C164.856 60.1342 162.777 59.5964 160.952 58.5206C159.16 57.445 157.741 55.9492 156.693 54.0331C155.679 52.117 155.172 49.8984 155.172 47.3773ZM163.081 47.1755C163.081 48.3857 163.335 49.4613 163.842 50.4025C164.349 51.3439 165.025 52.0833 165.87 52.6211C166.715 53.1254 167.645 53.3775 168.659 53.3775C169.875 53.3775 170.94 53.1254 171.853 52.6211C172.799 52.0833 173.526 51.3439 174.033 50.4025C174.574 49.4613 174.844 48.3857 174.844 47.1755C174.844 45.9318 174.574 44.8729 174.033 43.9989C173.492 43.0914 172.749 42.3853 171.802 41.8812C170.89 41.3769 169.825 41.1248 168.608 41.1248C167.594 41.1248 166.664 41.3769 165.819 41.8812C164.974 42.3853 164.298 43.0914 163.791 43.9989C163.318 44.9066 163.081 45.9653 163.081 47.1755ZM185.435 47.7805C185.435 45.125 185.993 42.8056 187.109 40.8223C188.224 38.8053 189.796 37.2422 191.824 36.1329C193.852 35.0237 196.218 34.469 198.922 34.469C201.626 34.469 203.976 35.0237 205.97 36.1329C207.998 37.2422 209.57 38.8053 210.685 40.8223C211.801 42.8056 212.358 45.125 212.358 47.7805C212.358 50.4362 211.801 52.7557 210.685 54.739C209.57 56.7223 207.998 58.2684 205.97 59.3777C203.976 60.487 201.626 61.0417 198.922 61.0417C196.218 61.0417 193.852 60.487 191.824 59.3777C189.796 58.2684 188.224 56.7223 187.109 54.739C185.993 52.7557 185.435 50.4362 185.435 47.7805ZM193.294 47.7302C193.294 49.0076 193.531 50.1337 194.004 51.1086C194.477 52.0498 195.136 52.7892 195.982 53.3272C196.827 53.8313 197.807 54.0834 198.922 54.0834C200.038 54.0834 201.018 53.8313 201.863 53.3272C202.708 52.7892 203.35 52.0498 203.79 51.1086C204.263 50.1337 204.5 49.0076 204.5 47.7302C204.5 46.4528 204.263 45.3435 203.79 44.4023C203.35 43.4611 202.708 42.7384 201.863 42.234C201.018 41.6963 200.038 41.4272 198.922 41.4272C197.807 41.4272 196.827 41.6963 195.982 42.234C195.136 42.7384 194.477 43.4611 194.004 44.4023C193.531 45.3435 193.294 46.4528 193.294 47.7302ZM215.643 60.4367V35.2255H223.502V60.4367H215.643ZM219.597 31.2924C218.347 31.2924 217.282 30.8721 216.403 30.0318C215.558 29.1578 215.136 28.0989 215.136 26.8552C215.136 25.6115 215.558 24.5694 216.403 23.7289C217.282 22.8886 218.347 22.4684 219.597 22.4684C220.814 22.4684 221.845 22.8886 222.69 23.7289C223.569 24.5694 224.009 25.6115 224.009 26.8552C224.009 28.0989 223.569 29.1578 222.69 30.0318C221.845 30.8721 220.814 31.2924 219.597 31.2924ZM228.583 72.5382V35.2255H235.734L236.138 38.3012C236.848 37.1247 237.981 36.1835 239.535 35.4774C241.09 34.7715 242.764 34.4187 244.555 34.4187C246.921 34.4187 248.982 34.9396 250.74 35.9817C252.498 37.0238 253.884 38.5196 254.899 40.4694C255.911 42.3853 256.452 44.7048 256.522 47.4277C256.589 50.0831 256.148 52.4532 255.203 54.5372C254.256 56.5877 252.888 58.2013 251.095 59.3777C249.303 60.5545 247.141 61.1426 244.606 61.1426C242.848 61.1426 241.209 60.8401 239.688 60.2351C238.167 59.6299 237.034 58.8568 236.291 57.9156V72.5382H228.583ZM236.442 47.8311C236.442 49.0748 236.695 50.1841 237.203 51.159C237.744 52.1001 238.471 52.8397 239.384 53.3775C240.329 53.8818 241.411 54.1338 242.627 54.1338C243.879 54.1338 244.945 53.865 245.822 53.3272C246.735 52.7892 247.429 52.0498 247.9 51.1086C248.409 50.1672 248.662 49.0748 248.662 47.8311C248.662 46.5872 248.409 45.4947 247.9 44.5535C247.429 43.6124 246.735 42.8727 245.822 42.335C244.945 41.7972 243.879 41.5282 242.627 41.5282C241.411 41.5282 240.329 41.7972 239.384 42.335C238.471 42.8393 237.744 43.562 237.203 44.5032C236.695 45.4444 236.442 46.5537 236.442 47.8311ZM257.859 52.4698H264.909C264.909 53.3438 265.194 54.0331 265.77 54.5372C266.378 55.0415 267.256 55.2936 268.405 55.2936C269.081 55.2936 269.641 55.2096 270.079 55.0415C270.553 54.8734 270.908 54.6381 271.143 54.3356C271.415 53.9994 271.549 53.6297 271.549 53.2263C271.549 52.7892 271.398 52.4195 271.094 52.117C270.822 51.8145 270.349 51.5792 269.673 51.4111L265.213 50.2512C262.71 49.5791 260.936 48.5873 259.889 47.2764C258.839 45.9653 258.317 44.4695 258.317 42.7887C258.317 41.1079 258.739 39.6458 259.584 38.4021C260.462 37.1247 261.646 36.1498 263.132 35.4774C264.621 34.7715 266.292 34.4187 268.152 34.4187C270.957 34.4187 273.256 35.1918 275.048 36.7382C276.873 38.2506 277.837 40.318 277.939 42.9399H270.89C270.925 42.0659 270.672 41.3769 270.131 40.8726C269.59 40.3348 268.879 40.066 268.001 40.066C267.224 40.066 266.58 40.2676 266.074 40.671C265.6 41.0407 265.364 41.5619 265.364 42.234C265.364 42.8727 265.6 43.3433 266.074 43.6461C266.548 43.9148 267.189 44.1501 268.001 44.352L272.513 45.4613C274.61 45.9653 276.198 46.8227 277.28 48.0327C278.362 49.2429 278.9 50.7893 278.9 52.6716C278.9 55.2599 277.939 57.3104 276.012 58.8231C274.085 60.3358 271.584 61.0922 268.508 61.0922C265.331 61.0922 262.777 60.3023 260.852 58.7224C258.957 57.1088 257.961 55.0246 257.859 52.4698ZM291.36 61.0922C288.386 61.0922 286.087 60.1677 284.464 58.319C282.843 56.4701 282.03 54.0497 282.03 51.058V35.2255H289.839V48.2345C289.839 50.5875 290.262 52.1673 291.107 52.9741C291.952 53.7809 293.067 54.1843 294.453 54.1843C296.245 54.1843 297.478 53.68 298.154 52.6716C298.83 51.6633 299.169 50.2178 299.169 48.3352V35.2255H306.977V60.4367H299.626L299.118 57.6131C298.34 58.655 297.241 59.4955 295.823 60.1342C294.402 60.7729 292.916 61.0922 291.36 61.0922ZM319.866 60.4367H312.007V35.2255H319.309L319.866 39.5617L319.005 38.654C319.681 37.3766 320.695 36.3514 322.047 35.5783C323.433 34.7715 324.919 34.3681 326.509 34.3681C329.01 34.3681 330.97 34.9227 332.391 36.032C333.844 37.1413 334.891 38.6037 335.532 40.4189H334.316C334.722 38.6037 335.702 37.1413 337.258 36.032C338.813 34.9227 340.671 34.3681 342.835 34.3681C346.113 34.3681 348.531 35.2421 350.086 36.9901C351.64 38.7381 352.417 41.0576 352.417 43.9486V60.4367H344.813V45.8646C344.813 44.2845 344.423 43.108 343.645 42.335C342.902 41.5619 341.906 41.1753 340.655 41.1753C339.912 41.1753 339.201 41.3434 338.525 41.6794C337.85 41.9819 337.29 42.5365 336.851 43.3433C336.412 44.1167 336.192 45.226 336.192 46.6712V60.4367H328.485V45.8646C328.485 44.2845 328.114 43.1249 327.371 42.3853C326.625 41.6122 325.629 41.2257 324.378 41.2257C323.635 41.2257 322.908 41.3938 322.198 41.73C321.522 42.0325 320.965 42.5871 320.526 43.3939C320.087 44.167 319.866 45.2594 319.866 46.6712V60.4367Z" fill="#1B3D5B"/>
</g>
<defs>
<linearGradient id="paint0_linear_981_2885" x1="59.4584" y1="21.7425" x2="59.4584" y2="46.7287" gradientUnits="userSpaceOnUse">
<stop stop-color="#25136D"/>
<stop offset="1" stop-color="#3D9BA2"/>
</linearGradient>
<linearGradient id="paint1_linear_981_2885" x1="44.4016" y1="15.8581" x2="56.8601" y2="37.5568" gradientUnits="userSpaceOnUse">
<stop stop-color="#25136D"/>
<stop offset="1" stop-color="#3D9BA2"/>
</linearGradient>
<linearGradient id="paint2_linear_981_2885" x1="28.4028" y1="18.2487" x2="50.1014" y2="30.8459" gradientUnits="userSpaceOnUse">
<stop stop-color="#25136D"/>
<stop offset="1" stop-color="#3D9BA2"/>
</linearGradient>
<linearGradient id="paint3_linear_981_2885" x1="15.7484" y1="28.2739" x2="40.8735" y2="28.2739" gradientUnits="userSpaceOnUse">
<stop stop-color="#25136D"/>
<stop offset="1" stop-color="#3D9BA2"/>
</linearGradient>
<linearGradient id="paint4_linear_981_2885" x1="9.82936" y1="43.248" x2="31.5279" y2="30.6507" gradientUnits="userSpaceOnUse">
<stop stop-color="#25136D"/>
<stop offset="1" stop-color="#3D9BA2"/>
</linearGradient>
<linearGradient id="paint5_linear_981_2885" x1="12.2309" y1="59.1591" x2="24.6894" y2="37.4605" gradientUnits="userSpaceOnUse">
<stop stop-color="#25136D"/>
<stop offset="1" stop-color="#3D9BA2"/>
</linearGradient>
<linearGradient id="paint6_linear_981_2885" x1="22.3101" y1="71.7439" x2="22.3101" y2="46.7576" gradientUnits="userSpaceOnUse">
<stop stop-color="#25136D"/>
<stop offset="1" stop-color="#3D9BA2"/>
</linearGradient>
<linearGradient id="paint7_linear_981_2885" x1="37.3661" y1="77.6308" x2="24.9077" y2="55.9322" gradientUnits="userSpaceOnUse">
<stop stop-color="#25136D"/>
<stop offset="1" stop-color="#3D9BA2"/>
</linearGradient>
<linearGradient id="paint8_linear_981_2885" x1="53.3656" y1="75.2425" x2="31.667" y2="62.645" gradientUnits="userSpaceOnUse">
<stop stop-color="#25136D"/>
<stop offset="1" stop-color="#3D9BA2"/>
</linearGradient>
<linearGradient id="paint9_linear_981_2885" x1="66.0203" y1="65.2189" x2="40.8951" y2="65.2189" gradientUnits="userSpaceOnUse">
<stop stop-color="#25136D"/>
<stop offset="1" stop-color="#3D9BA2"/>
</linearGradient>
<linearGradient id="paint10_linear_981_2885" x1="71.9398" y1="50.2461" x2="50.2412" y2="62.8434" gradientUnits="userSpaceOnUse">
<stop stop-color="#25136D"/>
<stop offset="1" stop-color="#3D9BA2"/>
</linearGradient>
<linearGradient id="paint11_linear_981_2885" x1="69.5383" y1="34.3351" x2="57.0798" y2="56.0337" gradientUnits="userSpaceOnUse">
<stop stop-color="#25136D"/>
<stop offset="1" stop-color="#3D9BA2"/>
</linearGradient>
<clipPath id="clip0_981_2885">
<rect width="355.255" height="87.7458" fill="white" transform="translate(0.744873 0.400085)"/>
</clipPath>
</defs>
</svg>
