<svg width="234" height="119" viewBox="0 0 234 119" fill="none" xmlns="http://www.w3.org/2000/svg">
<path d="M6.95325 68.5475H13.5311V100.623H6.95325V68.5475Z" fill="#394149"/>
<path d="M17.3464 89.6328C17.342 87.329 18.025 85.0755 19.3089 83.1578C20.5928 81.2401 22.4199 79.7443 24.559 78.8597C26.698 77.9751 29.0529 77.7414 31.3256 78.1882C33.5983 78.635 35.6866 79.7422 37.3262 81.3699C38.9659 82.9974 40.0832 85.0721 40.5367 87.3313C40.9904 89.5905 40.7598 91.9329 39.8742 94.0619C38.9887 96.1906 37.488 98.0104 35.562 99.2908C33.6361 100.571 31.3716 101.255 29.055 101.255C27.5141 101.272 25.9856 100.984 24.5586 100.406C23.1316 99.8286 21.8348 98.9736 20.7443 97.8911C19.6538 96.8088 18.7916 95.5208 18.2081 94.1025C17.6246 92.6845 17.3317 91.1649 17.3464 89.6328ZM34.1416 89.6328C34.1159 88.6383 33.7957 87.6733 33.2212 86.8589C32.6468 86.0442 31.8436 85.4164 30.9121 85.0534C29.9805 84.6904 28.9621 84.6089 27.9843 84.8185C27.0063 85.0282 26.1124 85.52 25.414 86.2324C24.7158 86.9448 24.2442 87.8462 24.0583 88.8239C23.8724 89.8014 23.9806 90.8118 24.3691 91.7285C24.7578 92.6452 25.4096 93.4278 26.2429 93.9781C27.0765 94.5283 28.0545 94.822 29.055 94.8223C29.7393 94.8414 30.4203 94.7193 31.0549 94.4634C31.6894 94.2076 32.2639 93.8238 32.742 93.3361C33.2198 92.8484 33.5911 92.2677 33.8319 91.6304C34.0729 90.9928 34.1783 90.3128 34.1416 89.6328Z" fill="#394149"/>
<path d="M67.2059 78.6431V99.5322C67.2059 106.924 61.3955 110.042 55.5194 110.042C53.4532 110.195 51.3843 109.779 49.5395 108.841C47.6948 107.903 46.1453 106.477 45.0608 104.722L50.7177 101.473C51.1665 102.373 51.8768 103.118 52.7563 103.611C53.6359 104.105 54.6443 104.325 55.6511 104.242C56.3133 104.352 56.9922 104.309 57.6354 104.116C58.2786 103.924 58.8686 103.587 59.3601 103.132C59.8515 102.677 60.2313 102.116 60.4703 101.492C60.7092 100.868 60.8007 100.197 60.7377 99.5322V97.5043C59.9645 98.4506 58.9777 99.2022 57.8579 99.6984C56.738 100.195 55.5162 100.422 54.2916 100.361C51.3142 100.361 48.4589 99.1846 46.3534 97.091C44.2481 94.9973 43.0653 92.1576 43.0653 89.1966C43.0653 86.2357 44.2481 83.3962 46.3534 81.3025C48.4589 79.2088 51.3142 78.0326 54.2916 78.0326C55.5155 77.9769 56.7354 78.2062 57.8546 78.702C58.9738 79.198 59.9611 79.9468 60.7377 80.8889V78.7085L67.2059 78.6431ZM60.7377 89.1966C60.7816 88.1363 60.5053 87.087 59.9448 86.1837C59.3841 85.2806 58.5646 84.5648 57.5918 84.1286C56.6189 83.6922 55.5369 83.5553 54.485 83.7354C53.4332 83.9152 52.4596 84.4041 51.6894 85.1386C50.919 85.8734 50.3873 86.8203 50.1625 87.8578C49.9375 88.8953 50.0299 89.9762 50.4277 90.961C50.8254 91.9461 51.5102 92.79 52.3941 93.3849C53.2781 93.9799 54.3206 94.2981 55.3878 94.299C56.0846 94.348 56.7837 94.2515 57.4404 94.0153C58.0972 93.779 58.697 93.4089 59.2011 92.9281C59.7049 92.4474 60.1022 91.8669 60.3669 91.2242C60.6316 90.5816 60.7579 89.891 60.7377 89.1966Z" fill="#394149"/>
<path d="M70.9994 89.6328C70.995 87.329 71.6781 85.0755 72.9619 83.1578C74.246 81.2401 76.0731 79.7443 78.212 78.8597C80.351 77.9751 82.7059 77.7414 84.9786 78.1882C87.2513 78.635 89.3397 79.7422 90.9794 81.3699C92.6189 82.9974 93.7362 85.0721 94.1899 87.3313C94.6434 89.5905 94.4128 91.9329 93.5273 94.0619C92.6417 96.1906 91.141 98.0104 89.2152 99.2908C87.2892 100.571 85.0246 101.255 82.708 101.255C81.1674 101.272 79.6386 100.984 78.2116 100.406C76.7845 99.8286 75.4877 98.9736 74.3974 97.8911C73.307 96.8088 72.4446 95.5208 71.8611 94.1025C71.2776 92.6845 70.9846 91.1649 70.9994 89.6328ZM87.7949 89.6328C87.7689 88.6383 87.4487 87.6733 86.8742 86.8589C86.2998 86.0442 85.4966 85.4164 84.5651 85.0534C83.6338 84.6904 82.6154 84.6089 81.6374 84.8185C80.6594 85.0282 79.7654 85.52 79.067 86.2324C78.3688 86.9448 77.8972 87.8462 77.7112 88.8239C77.5254 89.8014 77.6337 90.8118 78.0221 91.7285C78.4108 92.6452 79.0626 93.4278 79.8959 93.9781C80.7295 94.5283 81.7075 94.822 82.708 94.8223C83.3888 94.8352 84.0649 94.7087 84.6944 94.45C85.3236 94.1914 85.8928 93.8067 86.366 93.3197C86.8392 92.833 87.2063 92.2541 87.4447 91.6198C87.683 90.9855 87.7872 90.3089 87.751 89.6328H87.7949Z" fill="#394149"/>
<path d="M97.4642 72.7558C97.4642 71.971 97.6983 71.2036 98.1367 70.5511C98.5753 69.8985 99.1985 69.3898 99.9276 69.0894C100.657 68.789 101.459 68.7105 102.233 68.8636C103.007 69.0167 103.718 69.3947 104.277 69.9496C104.835 70.5047 105.215 71.2117 105.369 71.9816C105.523 72.7514 105.444 73.5495 105.142 74.2745C104.84 74.9996 104.328 75.6196 103.672 76.0555C103.016 76.4915 102.244 76.7242 101.455 76.7242C100.398 76.7187 99.3866 76.2987 98.6394 75.5556C97.8922 74.8128 97.47 73.8067 97.4642 72.7558ZM98.1439 78.6431H104.722V100.623H98.1439V78.6431Z" fill="#394149"/>
<path d="M133.401 89.6329C133.481 91.0858 133.271 92.54 132.783 93.9119C132.295 95.2837 131.54 96.5461 130.559 97.6263C129.579 98.7065 128.394 99.5832 127.071 100.206C125.749 100.829 124.316 101.185 122.855 101.255C121.628 101.313 120.403 101.104 119.266 100.64C118.13 100.177 117.109 99.4713 116.277 98.573V109.475H109.699V78.6432H116.277V80.7147C117.109 79.8164 118.13 79.1108 119.266 78.6473C120.403 78.1839 121.628 77.9742 122.855 78.0326C124.314 78.1024 125.745 78.4582 127.066 79.0796C128.387 79.7012 129.571 80.5759 130.551 81.6538C131.531 82.7317 132.287 83.9913 132.776 85.3606C133.266 86.7299 133.478 88.1818 133.401 89.6329ZM126.823 89.6329C126.797 88.6095 126.47 87.6161 125.882 86.7758C125.294 85.9358 124.471 85.2853 123.515 84.9057C122.559 84.5258 121.512 84.4332 120.503 84.6394C119.495 84.8454 118.569 85.3412 117.842 86.0651C117.114 86.789 116.615 87.7092 116.408 88.712C116.201 89.7148 116.294 90.756 116.676 91.7067C117.058 92.6573 117.711 93.4759 118.556 94.0606C119.401 94.6455 120.4 94.9711 121.429 94.9969C122.148 95.0424 122.867 94.9343 123.54 94.6803C124.213 94.4261 124.823 94.0317 125.33 93.5237C125.836 93.0155 126.228 92.4054 126.478 91.7344C126.728 91.0634 126.831 90.3468 126.779 89.6329H126.823Z" fill="#394149"/>
<path d="M153.88 94.0374C153.88 99.0962 149.495 101.255 144.671 101.255C142.744 101.424 140.81 101.017 139.118 100.084C137.426 99.1513 136.054 97.7366 135.177 96.0216L140.922 92.7727C141.155 93.5659 141.654 94.2558 142.336 94.7278C143.018 95.1998 143.842 95.4256 144.671 95.3674C146.272 95.3674 147.061 94.8659 147.061 93.9937C147.061 91.5733 136.098 92.86 136.098 85.2718C136.098 80.4746 140.176 78.0542 144.868 78.0542C146.6 78.0021 148.314 78.411 149.833 79.2393C151.352 80.0673 152.62 81.2845 153.507 82.7641L147.741 85.7733C147.486 85.1975 147.069 84.7075 146.539 84.3629C146.01 84.0184 145.392 83.8342 144.759 83.8325C143.619 83.8325 142.917 84.2687 142.917 85.0755C143.005 87.583 153.88 85.904 153.88 94.0374Z" fill="#394149"/>
<path d="M178.086 78.6432V100.623H171.508V98.573C170.743 99.4837 169.772 100.201 168.675 100.668C167.577 101.134 166.384 101.335 165.194 101.255C160.808 101.255 156.927 98.0932 156.927 92.1406V78.6432H163.505V91.1811C163.447 91.7155 163.51 92.2558 163.688 92.7631C163.867 93.2704 164.156 93.7318 164.536 94.1139C164.916 94.4961 165.377 94.7891 165.885 94.972C166.393 95.1551 166.936 95.223 167.474 95.1715C169.886 95.1715 171.574 93.7759 171.574 90.6579V78.6432H178.086Z" fill="#394149"/>
<path d="M216.106 87.1468V100.622H209.528V87.7139C209.528 85.5334 208.454 84.0941 206.349 84.0941C204.244 84.0941 202.885 85.6424 202.885 88.2371V100.622H196.307V87.7139C196.307 85.5334 195.254 84.0941 193.127 84.0941C191.001 84.0941 189.685 85.6424 189.685 88.2371V100.622H183.107V78.643H189.685V80.6709C190.373 79.7752 191.274 79.0647 192.308 78.604C193.342 78.1431 194.475 77.9466 195.605 78.0325C196.74 77.9776 197.869 78.2161 198.883 78.7241C199.898 79.2323 200.763 79.9932 201.394 80.9325C202.127 79.9505 203.1 79.1693 204.219 78.6622C205.339 78.1551 206.569 77.9383 207.796 78.0325C212.795 78.0325 216.106 81.652 216.106 87.1468Z" fill="#394149"/>
<path d="M221.719 78.5124C224.432 78.5124 226.631 76.3255 226.631 73.628C226.631 70.9305 224.432 68.7438 221.719 68.7438C219.007 68.7438 216.808 70.9305 216.808 73.628C216.808 76.3255 219.007 78.5124 221.719 78.5124Z" fill="#394149"/>
<path d="M81.3924 51.9105C94.0952 51.9105 104.393 41.6697 104.393 29.037C104.393 16.4045 94.0952 6.1637 81.3924 6.1637C68.6896 6.1637 58.3918 16.4045 58.3918 29.037C58.3918 41.6697 68.6896 51.9105 81.3924 51.9105Z" fill="#394149"/>
<path d="M132.809 51.9105C145.512 51.9105 155.809 41.6697 155.809 29.037C155.809 16.4045 145.512 6.1637 132.809 6.1637C120.106 6.1637 109.808 16.4045 109.808 29.037C109.808 41.6697 120.106 51.9105 132.809 51.9105Z" fill="#394149"/>
<path d="M52.9761 6.1637H6.99719V51.8886H52.9761V6.1637Z" fill="#394149"/>
</svg>
