<svg width="173" height="139" viewBox="0 0 173 139" fill="none" xmlns="http://www.w3.org/2000/svg">
<path d="M57.4459 47.6159C57.4459 47.264 57.4459 42.144 57.4459 42.144H54.3865C54.3865 42.144 54.3865 47.1846 54.3865 47.3437C54.3865 48.2745 53.519 48.8989 52.0578 48.8989C50.5282 48.8989 49.6948 48.2971 49.6948 47.3321C49.6948 47.1733 49.6948 42.144 49.6948 42.144H46.6011C46.6011 42.144 46.6011 46.9234 46.6011 47.3321C46.6011 50.034 48.8271 51.1807 51.9322 51.1807C55.2542 51.1807 57.4459 50.0227 57.4459 47.6159Z" fill="#394149"/>
<path d="M67.7488 51.0558V48.6832H62.2922V42.144H59.1985V51.0558H67.7488Z" fill="#394149"/>
<path d="M76.9428 44.3806V42.144H66.2463V44.3806H70.0248V51.0558H73.1527V44.3806H76.9428Z" fill="#394149"/>
<path d="M81.0557 51.0558V42.144H77.9165V51.0558H81.0557Z" fill="#394149"/>
<path d="M95.4586 51.0558V42.144H91.5887L89.1458 47.4912L86.8171 42.144H82.8215V51.0558H85.7325V46.2425L87.8329 51.0558H90.4358L92.559 46.2425V51.0558H95.4586Z" fill="#394149"/>
<path d="M100.307 49.4096H105.147L105.935 51.0558H109.234L104.714 42.144H101.026L96.2432 51.0558H99.4737L100.307 49.4096ZM104.177 47.4116H101.312L102.442 45.2659L102.784 44.4488L103.104 45.2546L104.177 47.4116Z" fill="#394149"/>
<path d="M118.937 44.3806V42.144H108.241V44.3806H112.02V51.0558H115.148V44.3806H118.937Z" fill="#394149"/>
<path d="M129.34 51.0558V48.8421H122.915V47.684H129.077V45.5158H122.915V44.3691H129.261V42.144H119.901V51.0558H129.34Z" fill="#394149"/>
<path d="M69.9309 55.7932H66.9742C66.9742 55.7932 65.0449 61.4013 65.0449 61.5375C65.0449 61.4013 63.2412 55.7932 63.2412 55.7932H60.0335C60.0335 55.7932 58.2412 61.4013 58.2412 61.5375C58.2412 61.4013 56.3005 55.7932 56.3005 55.7932H52.9785L56.3349 64.7049H59.6796C59.6796 64.7049 61.4833 59.3806 61.4947 59.233C61.506 59.3806 63.2983 64.7049 63.2983 64.7049H66.6544L69.9309 55.7932Z" fill="#394149"/>
<path d="M73.9767 64.7049V55.7932H70.8374V64.7049H73.9767Z" fill="#394149"/>
<path d="M86.1876 64.7049V55.7932H83.2652V60.6406L78.9615 55.7932H75.7422V64.7049H78.6876V59.7438L83.1282 64.7049H86.1876Z" fill="#394149"/>
<path d="M98.4171 64.7049V55.7932H95.4947V60.6406L91.191 55.7932H87.9719V64.7049H90.9171V59.7438L95.3577 64.7049H98.4171Z" fill="#394149"/>
<path d="M109.642 64.7049V62.4912H103.215V61.3331H109.379V59.1649H103.215V58.0182H109.562V55.7932H100.201V64.7049H109.642Z" fill="#394149"/>
<path d="M121.71 58.5063C121.71 57.7005 121.515 57.1213 121.104 56.7013C120.567 56.1337 119.643 55.7932 118.227 55.7932H111.093V64.7049H114.141V61.5604H116.915L119.142 64.7049H122.543L119.838 61.072C120.442 60.9812 120.934 60.618 121.252 60.1867C121.538 59.7893 121.71 59.1988 121.71 58.5063ZM118.742 58.7901C118.742 58.9379 118.719 59.1194 118.638 59.2556C118.524 59.4826 118.227 59.5736 117.737 59.5736H114.152V57.9501H117.679C118.159 57.9501 118.48 58.0295 118.638 58.3248C118.719 58.4382 118.742 58.62 118.742 58.7901Z" fill="#394149"/>
<path d="M58.7327 73.4726C58.7327 73.3269 58.7327 69.1179 58.7327 69.1179H57.6639C57.6639 69.1179 57.6639 73.3096 57.6639 73.404C57.6639 74.4154 56.707 74.9899 55.3278 74.9899C53.6987 74.9899 52.897 74.3727 52.897 73.3955C52.897 73.301 52.897 69.1179 52.897 69.1179H51.8196C51.8196 69.1179 51.8196 73.1983 51.8196 73.3611C51.8196 75.1441 53.216 75.9327 55.2848 75.9327C57.4224 75.9327 58.7327 75.0927 58.7327 73.4726Z" fill="#394149"/>
<path d="M66.4014 75.847V74.8613H61.738V69.1179H60.6606V75.847H66.4014Z" fill="#394149"/>
<path d="M72.5239 70.0951V69.1179H65.3347V70.0951H68.3862V75.847H69.4724V70.0951H72.5239Z" fill="#394149"/>
<path d="M80.1854 71.0208C80.1854 70.5407 80.0819 70.1893 79.901 69.9064C79.582 69.4349 78.9699 69.1179 77.9529 69.1179H73.574V75.847H74.6342V73.0096H77.72L79.6077 75.847H80.849L78.8062 72.8295C79.3233 72.7697 79.7285 72.4781 79.944 72.101C80.0993 71.8438 80.1854 71.4667 80.1854 71.0208ZM79.1164 71.1065C79.1164 71.2951 79.0735 71.5267 78.9959 71.681C78.858 71.9294 78.539 72.058 78.0219 72.0666H74.6428C74.6428 72.0495 74.6428 70.078 74.6428 70.078H77.8236C78.47 70.078 78.8148 70.2322 78.9959 70.5236C79.0735 70.6608 79.1164 70.8922 79.1164 71.1065Z" fill="#394149"/>
<path d="M83.2533 74.184H87.4686L88.3305 75.847H89.4856L86.0547 69.1179H84.7877L81.2449 75.847H82.374L83.2533 74.184ZM87.0202 73.2324H83.7189L85.0893 70.6523L85.3911 70.0265L85.6928 70.6523L87.0202 73.2324Z" fill="#394149"/>
<path d="M100.417 75.2042C100.685 74.8955 100.805 74.4583 100.805 73.9868C100.805 73.5412 100.676 73.0953 100.409 72.821C100.142 72.564 99.7107 72.3497 99.2365 72.3067C99.5124 72.2638 99.7279 72.0924 99.8744 71.9123C100.107 71.6466 100.245 71.218 100.245 70.7894C100.245 70.335 100.107 69.9235 99.814 69.6406C99.4952 69.3236 98.9521 69.1179 98.1935 69.1179H93.6421V75.847H98.5298C99.4434 75.847 100.081 75.6157 100.417 75.2042ZM99.133 71.0037C99.133 71.3037 99.0383 71.5694 98.8746 71.7237C98.7106 71.9038 98.4348 71.9809 98.1418 71.9809H94.6937V70.0436H97.9435C98.3401 70.0436 98.6417 70.1207 98.8486 70.3094C99.0297 70.4807 99.133 70.7294 99.133 71.0037ZM99.4778 74.5526C99.2623 74.7927 98.8917 74.9128 98.3486 74.9128H94.6937V72.9154H98.3746C98.8746 72.9154 99.2194 73.0182 99.4262 73.2154C99.6157 73.3955 99.6935 73.6268 99.6935 73.8926C99.6935 74.1669 99.6331 74.3983 99.4778 74.5526Z" fill="#394149"/>
<path d="M108.631 75.847V74.8613H103.373V72.941H108.424V71.9638H103.373V70.0951H108.571V69.1179H102.321V75.847H108.631Z" fill="#394149"/>
<path d="M117.052 73.8581C117.052 72.7608 116.32 72.1951 114.519 71.9894C114.216 71.9466 113.561 71.8781 113.207 71.8351C111.535 71.6379 111.027 71.4151 111.027 70.8408C111.027 70.2836 111.587 69.9664 113.276 69.9664C114.586 69.9664 115.259 70.2236 115.596 70.6863C115.691 70.815 115.742 70.9694 115.768 71.0893H116.922C116.889 70.8921 116.81 70.6178 116.69 70.3949C116.225 69.5978 115.269 69.0233 113.276 69.0233C110.897 69.0148 109.915 69.8721 109.915 70.935C109.915 71.9979 110.682 72.538 112.673 72.7696C113.018 72.8123 113.63 72.8809 113.932 72.9153C115.475 73.1037 115.958 73.3353 115.958 73.9782C115.958 74.5698 115.406 74.9983 113.638 74.9983C112.19 74.9983 111.414 74.7411 111.104 74.244C111.009 74.1068 110.949 73.8925 110.94 73.7468H109.802C109.828 74.0553 109.915 74.3897 110.07 74.6554C110.518 75.4699 111.57 75.9414 113.604 75.9414C116.035 75.9414 117.052 75.1611 117.052 73.8581Z" fill="#394149"/>
<path d="M124.781 70.0951V69.1179H117.593V70.0951H120.644V75.847H121.73V70.0951H124.781Z" fill="#394149"/>
<path d="M48.7683 81.696C48.7683 81.0102 48.6304 80.5472 48.3975 80.1957C48.0701 79.6898 47.432 79.4243 46.32 79.4243H42.0447V86.1534H43.1135V83.9589C43.1135 83.9589 46.1306 83.9589 46.2771 83.9589C47.3201 83.9503 48.0355 83.7104 48.4149 83.1618C48.6561 82.8274 48.7683 82.3474 48.7683 81.696ZM47.6821 81.696C47.6821 82.0386 47.6475 82.2959 47.5356 82.4674C47.3373 82.7845 46.9321 82.9817 46.096 82.9817C46.0184 82.9817 43.1135 82.9817 43.1135 82.9817V80.3844H46.1306C46.9149 80.3844 47.3201 80.5643 47.5356 80.9157C47.6389 81.07 47.6821 81.3531 47.6821 81.696Z" fill="#394149"/>
<path d="M56.5701 86.1534V85.1677H51.3119V83.2474H56.3632V82.2702H51.3119V80.4015H56.5097V79.4243H50.2603V86.1534H56.5701Z" fill="#394149"/>
<path d="M64.7933 81.3272C64.7933 80.8471 64.69 80.4957 64.5089 80.2128C64.1899 79.7413 63.578 79.4243 62.5608 79.4243H58.1819V86.1534H59.2421V83.316H62.3282L64.2159 86.1534H65.4572L63.4141 83.1359C63.9314 83.0761 64.3366 82.7845 64.5521 82.4074C64.7072 82.1502 64.7933 81.7731 64.7933 81.3272ZM63.7246 81.4129C63.7246 81.6015 63.6814 81.8331 63.6038 81.9874C63.4659 82.2358 63.1469 82.3644 62.6298 82.373H59.2507C59.2507 82.3559 59.2507 80.3844 59.2507 80.3844H62.4315C63.0779 80.3844 63.4227 80.5386 63.6038 80.83C63.6814 80.9672 63.7246 81.1986 63.7246 81.4129Z" fill="#394149"/>
<path d="M72.7846 80.4015V79.4243H66.7678V86.1534H67.8366V83.2904H72.5606V82.2873H67.8366V80.4015H72.7846Z" fill="#394149"/>
<path d="M77.6909 79.3041C76.2513 79.3041 75.26 79.6556 74.553 80.3929C73.9584 80.9672 73.6997 81.7645 73.6997 82.7673C73.6997 83.8646 74.0359 84.6876 74.6566 85.2448C75.3204 85.9049 76.3374 86.2476 77.6909 86.2476C79.0873 86.2476 80.1732 85.9049 80.8199 85.2104C81.3802 84.6446 81.6732 83.839 81.6732 82.7588C81.6732 81.713 81.4231 80.9157 80.8285 80.3499C80.1475 79.647 79.1302 79.3041 77.6909 79.3041ZM77.6909 85.2877C76.7426 85.2877 76.0702 85.082 75.5617 84.6705C75.0446 84.2505 74.7945 83.6074 74.7945 82.7844C74.7945 82.0129 75.01 81.3701 75.4237 80.9842C75.8979 80.5386 76.6219 80.2728 77.6823 80.2728C78.7768 80.2728 79.4579 80.53 79.9664 80.9757C80.3975 81.353 80.587 82.0215 80.587 82.7759C80.587 83.5388 80.389 84.1904 79.9492 84.5846C79.4407 85.0561 78.7253 85.2877 77.6909 85.2877Z" fill="#394149"/>
<path d="M89.7611 81.3272C89.7611 80.8471 89.6576 80.4957 89.4767 80.2128C89.1576 79.7413 88.5456 79.4243 87.5286 79.4243H83.1497V86.1534H84.2099V83.316H87.2957L89.1837 86.1534H90.4247L88.3819 83.1359C88.899 83.0761 89.3042 82.7845 89.5196 82.4074C89.675 82.1502 89.7611 81.7731 89.7611 81.3272ZM88.6921 81.4129C88.6921 81.6015 88.6491 81.8331 88.5716 81.9874C88.4337 82.2358 88.1146 82.3644 87.5975 82.373H84.2184C84.2184 82.3559 84.2184 80.3844 84.2184 80.3844H87.3993C88.0457 80.3844 88.3905 80.5386 88.5716 80.83C88.6491 80.9672 88.6921 81.1986 88.6921 81.4129Z" fill="#394149"/>
<path d="M100.071 86.1534V79.4243H98.6747L95.8905 84.9619L93.1578 79.4243H91.7356V86.1534H92.7614V80.9757L95.3128 86.1534H96.4333L99.0453 80.9757V86.1534H100.071Z" fill="#394149"/>
<path d="M103.098 84.4904H107.314L108.175 86.1534H109.331L105.9 79.4243H104.633L101.09 86.1534H102.219L103.098 84.4904ZM106.865 83.5388H103.564L104.934 80.9587L105.236 80.3329L105.538 80.9587L106.865 83.5388Z" fill="#394149"/>
<path d="M117.096 86.1534V79.4243H116.07V84.6532L111.589 79.4243H110.373V86.1534H111.416V80.8901L115.933 86.1534H117.096Z" fill="#394149"/>
<path d="M126.395 83.6418H125.274C125.239 83.9503 125.118 84.259 124.902 84.4904C124.438 85.0305 123.697 85.2619 122.56 85.2619C121.603 85.2619 120.577 84.9961 120.084 84.3017C119.827 83.9761 119.662 83.4961 119.662 82.7759C119.662 82.133 119.776 81.653 120.024 81.3271C120.437 80.6672 121.308 80.3243 122.534 80.3243C123.723 80.3243 124.473 80.6499 124.87 81.1043C125.093 81.3442 125.223 81.6273 125.265 81.9614H126.386C126.351 81.5844 126.23 81.1385 125.973 80.7614C125.42 79.947 124.403 79.3041 122.541 79.3041C120.767 79.3041 119.706 79.8699 119.118 80.7185C118.74 81.2071 118.55 81.8929 118.55 82.7673C118.55 83.7445 118.784 84.4647 119.188 84.9704C119.776 85.7678 120.904 86.2476 122.611 86.2476C124.361 86.2476 125.404 85.7248 125.922 84.8933C126.214 84.4904 126.361 84.0103 126.395 83.6418Z" fill="#394149"/>
<path d="M134.109 86.1534V85.1677H128.85V83.2474H133.902V82.2702H128.85V80.4015H134.048V79.4243H127.798V86.1534H134.109Z" fill="#394149"/>
<path d="M55.2764 92.8383L56.5655 96.7841H60.7373L57.3624 99.2227L58.6515 103.168L55.2764 100.73L51.9012 103.168L53.1906 99.2227L49.8154 96.7841H53.9872L55.2764 92.8383Z" fill="#394149"/>
<path d="M70.1591 92.8386L71.4744 96.7841H75.7315L72.2876 99.2228L73.603 103.169L70.1591 100.73L66.7152 103.169L68.0306 99.2228L64.5867 96.7841H68.8437L70.1591 92.8386Z" fill="#394149"/>
<path d="M84.9242 92.8386L86.2398 96.7841H90.4966L87.0527 99.2228L88.3683 103.169L84.9242 100.73L81.4803 103.169L82.7957 99.2228L79.3518 96.7841H83.6088L84.9242 92.8386Z" fill="#394149"/>
<path d="M99.6898 92.8386L101.005 96.7841H105.262L101.818 99.2228L103.134 103.169L99.6898 100.73L96.2459 103.169L97.5613 99.2228L94.1174 96.7841H98.3745L99.6898 92.8386Z" fill="#394149"/>
<path d="M114.572 92.8386L115.861 96.7841H120.033L116.657 99.2228L117.946 103.169L114.572 100.73L111.197 103.169L112.486 99.2228L109.111 96.7841H113.283L114.572 92.8386Z" fill="#394149"/>
<path d="M62.5075 26.2688L63.4823 29.2522H66.6366L64.0848 31.096L65.0595 34.0791L62.5075 32.2355L59.9557 34.0791L60.9305 31.096L58.3787 29.2522H61.533L62.5075 26.2688Z" fill="#394149"/>
<path d="M73.7605 26.2646L74.7552 29.2479H77.9736L75.3698 31.0918L76.3643 34.0749L73.7605 32.2311L71.1564 34.0749L72.1512 31.0918L69.5471 29.2479H72.7658L73.7605 26.2646Z" fill="#394149"/>
<path d="M84.9238 26.2646L85.9183 29.2479H89.137L86.5332 31.0918L87.5276 34.0749L84.9238 32.2311L82.3198 34.0749L83.3145 31.0918L80.7104 29.2479H83.9291L84.9238 26.2646Z" fill="#394149"/>
<path d="M96.0886 26.2646L97.0831 29.2479H100.302L97.6979 31.0918L98.6924 34.0749L96.0886 32.2311L93.4846 34.0749L94.4793 31.0918L91.8752 29.2479H95.0939L96.0886 26.2646Z" fill="#394149"/>
<path d="M107.339 26.2646L108.314 29.2479H111.468L108.917 31.0918L109.891 34.0749L107.339 32.2311L104.788 34.0749L105.762 31.0918L103.21 29.2479H106.365L107.339 26.2646Z" fill="#394149"/>
<path fill-rule="evenodd" clip-rule="evenodd" d="M17.579 79.9651C13.2774 53.2005 25.8316 26.7202 50.9644 15.3488L51.1964 15.8559C26.3164 27.1128 13.866 53.334 18.1321 79.8771C22.8519 109.243 46.6735 126.854 75.845 127.703L75.8286 128.26C46.4297 127.404 22.3473 109.634 17.579 79.9651Z" fill="#394149"/>
<path d="M45.515 22.1794C40.8704 22.2847 35.4346 24.8894 32.2271 28.6726C34.7993 31.048 38.9379 30.1699 41.9162 29.684C46.167 28.9908 50.6873 27.6479 54.6984 25.7468C53.0492 22.2554 48.6064 22.1095 45.515 22.1794Z" fill="#394149"/>
<path d="M41.8623 16.4814C39.1113 20.7431 35.8327 24.9787 32.2649 28.7086C29.2798 25.9219 31.0816 21.2846 32.2999 18.4007C34.5069 13.1753 39.7984 8.66904 45.3304 6.3634C46.8487 9.79865 43.5508 13.8657 41.8623 16.4814Z" fill="#394149"/>
<path d="M32.0748 34.1301C27.7258 35.6675 23.9887 39.9952 22.1123 44.34C25.2395 45.786 28.7946 43.6978 31.3954 42.3075C34.9665 40.3984 38.6098 37.7642 41.4765 34.7157C38.8864 31.9979 34.9535 33.1127 32.0748 34.1301Z" fill="#394149"/>
<path d="M26.8033 29.8717C25.8513 34.7324 24.2552 39.7704 22.1589 44.3622C18.5 42.6461 18.6393 37.731 18.7961 34.6031C19.0636 29.2642 22.067 23.176 26.2485 19.3069C28.8085 22.0362 27.4097 26.7754 26.8033 29.8717Z" fill="#394149"/>
<path d="M23.7066 49.5591C20.0827 52.4021 17.8862 57.6708 17.3774 62.3756C20.8055 62.767 23.5456 59.6645 25.5845 57.5359C28.3604 54.6378 30.9881 51.0028 32.6569 47.1999C29.389 45.427 26.067 47.7072 23.7066 49.5591Z" fill="#394149"/>
<path d="M17.4288 47.159C18.075 52.0674 18.0764 57.3777 17.4299 62.382C13.4432 61.895 12.1208 57.1345 11.3397 54.1482C9.99116 48.9933 10.8953 42.3348 13.5224 37.3236C16.8053 39.1309 17.0159 44.0216 17.4288 47.159Z" fill="#394149"/>
<path d="M20.8629 66.4005C17.9953 70.5779 16.9869 77.1245 18.2765 82.3864C22.0659 81.4942 23.9443 77.2277 25.4527 74.2145C27.4572 70.2099 29.1515 65.5379 29.758 60.9541C25.6479 60.1034 22.7518 63.6486 20.8629 66.4005Z" fill="#394149"/>
<path d="M13.3352 65.9782C15.5694 71.1222 17.3129 76.7838 18.3332 82.3737C13.9872 83.3022 10.8593 78.7639 9.0422 75.7547C5.80705 70.398 4.86458 62.9722 6.0497 56.564C10.0274 57.3571 11.9739 62.8447 13.3352 65.9782Z" fill="#394149"/>
<path d="M22.8693 84.5757C21.3296 89.6432 22.3998 96.5324 25.5172 101.297C28.943 99.0784 29.4171 94.1965 29.9026 90.6961C30.5428 86.077 30.8442 80.9601 30.0489 76.1703C25.6672 76.7266 23.8977 81.1903 22.8693 84.5757Z" fill="#394149"/>
<path d="M15.2546 86.745C19.0988 91.1316 22.6448 96.1331 25.5693 101.264C21.603 103.726 16.9487 100.362 14.1259 97.9813C9.11821 93.7582 5.86658 86.5803 5.0957 79.8133C9.2631 79.2563 12.9357 84.0985 15.2546 86.745Z" fill="#394149"/>
<path d="M30.9479 101.824C31.2783 107.722 35.1399 113.912 40.2816 117.435C42.7646 114.054 41.2082 108.874 40.3612 105.258C39.2209 100.39 37.6427 95.3206 35.2973 90.8224C31.2075 92.9718 30.7303 97.9391 30.9479 101.824Z" fill="#394149"/>
<path d="M24.0324 106.806C29.603 109.885 35.1575 113.517 40.3219 117.382C37.2291 121.432 31.0472 119.817 27.2151 118.516C20.462 116.221 14.4415 110.174 11.2969 103.455C15.2839 101.413 20.7418 104.988 24.0324 106.806Z" fill="#394149"/>
<path d="M46.8131 116.234C50.1565 122.302 57.7754 126.261 64.9502 127.213C65.7225 122.802 60.9228 118.435 58.3074 115.577C54.5837 111.509 50.7035 107.288 46.3532 103.771C43.0939 107.534 44.817 112.611 46.8131 116.234Z" fill="#394149"/>
<path d="M42.0382 123.924C49.6381 124.71 57.3669 125.841 64.9624 127.146C64.2373 132.712 55.3557 133.61 51.3236 133.939C43.0564 134.612 33.8597 131.308 27.4561 125.744C30.6366 122.022 37.99 123.506 42.0382 123.924Z" fill="#394149"/>
<path d="M56.6767 10.6772C51.5743 12.1248 45.6018 14.871 42.6514 19.9404C48.0069 19.3599 53.2705 17.4648 58.418 16.021C64.1838 14.4034 70.2549 13.1937 75.8373 10.961C69.7237 8.52861 62.5169 9.02022 56.6767 10.6772Z" fill="#394149"/>
<path fill-rule="evenodd" clip-rule="evenodd" d="M155.389 79.8771C159.655 53.334 147.204 27.1132 122.325 15.8559L122.557 15.3488C147.69 26.7204 160.244 53.2005 155.942 79.9651C151.175 109.634 127.092 127.404 97.693 128.26L97.6768 127.703C126.848 126.854 150.669 109.243 155.389 79.8771Z" fill="#394149"/>
<path d="M128.007 22.1794C132.651 22.2847 138.086 24.8894 141.295 28.6726C138.722 31.048 134.582 30.1699 131.606 29.684C127.354 28.9908 122.833 27.6479 118.823 25.7468C120.472 22.2554 124.914 22.1095 128.007 22.1794Z" fill="#394149"/>
<path d="M131.659 16.4814C134.411 20.7431 137.689 24.9787 141.256 28.7086C144.242 25.9219 142.44 21.2846 141.221 18.4007C139.015 13.1753 133.723 8.66904 128.19 6.3634C126.672 9.79865 129.971 13.8657 131.659 16.4814Z" fill="#394149"/>
<path d="M141.448 34.1301C145.797 35.6675 149.533 39.9952 151.409 44.34C148.282 45.786 144.727 43.6978 142.126 42.3075C138.555 40.3984 134.912 37.7642 132.047 34.7157C134.636 31.9979 138.569 33.1127 141.448 34.1301Z" fill="#394149"/>
<path d="M146.719 29.8717C147.671 34.7324 149.266 39.7704 151.363 44.3622C155.022 42.6461 154.883 37.731 154.725 34.6031C154.458 29.2642 151.456 23.176 147.274 19.3069C144.713 22.0362 146.113 26.7754 146.719 29.8717Z" fill="#394149"/>
<path d="M149.815 49.5591C153.439 52.4021 155.636 57.6708 156.144 62.3756C152.717 62.767 149.977 59.6645 147.939 57.5359C145.162 54.6378 142.533 51.0028 140.866 47.1999C144.133 45.427 147.456 47.7072 149.815 49.5591Z" fill="#394149"/>
<path d="M156.095 47.159C155.447 52.067 155.447 57.3777 156.093 62.382C160.079 61.895 161.403 57.1345 162.183 54.1482C163.532 48.9933 162.627 42.3348 160.001 37.3236C156.717 39.1309 156.506 44.0216 156.095 47.159Z" fill="#394149"/>
<path d="M152.659 66.4005C155.527 70.5779 156.534 77.1245 155.246 82.3864C151.456 81.4942 149.578 77.2279 148.069 74.2145C146.065 70.2099 144.37 65.5379 143.764 60.9541C147.873 60.1034 150.771 63.6486 152.659 66.4005Z" fill="#394149"/>
<path d="M160.186 65.9782C157.953 71.1222 156.209 76.7838 155.189 82.3737C159.534 83.3022 162.661 78.7639 164.479 75.7547C167.714 70.398 168.657 62.9722 167.472 56.564C163.495 57.3571 161.547 62.8447 160.186 65.9782Z" fill="#394149"/>
<path d="M150.653 84.5757C152.192 89.6432 151.124 96.5324 148.006 101.297C144.581 99.0784 144.105 94.1965 143.62 90.6961C142.981 86.077 142.679 80.9601 143.473 76.1703C147.855 76.7266 149.624 81.1903 150.653 84.5757Z" fill="#394149"/>
<path d="M158.266 86.745C154.423 91.1318 150.878 96.1331 147.952 101.264C151.918 103.726 156.573 100.362 159.397 97.9813C164.403 93.7582 167.656 86.5803 168.427 79.8133C164.259 79.2563 160.586 84.0985 158.266 86.745Z" fill="#394149"/>
<path d="M142.572 101.824C142.242 107.722 138.381 113.912 133.24 117.435C130.756 114.054 132.314 108.874 133.159 105.258C134.299 100.39 135.878 95.3206 138.223 90.8224C142.314 92.9718 142.79 97.9391 142.572 101.824Z" fill="#394149"/>
<path d="M149.489 106.806C143.919 109.885 138.365 113.517 133.201 117.382C136.294 121.432 142.475 119.817 146.306 118.516C153.061 116.221 159.081 110.174 162.225 103.455C158.239 101.413 152.78 104.988 149.489 106.806Z" fill="#394149"/>
<path d="M126.709 116.234C123.365 122.302 115.747 126.261 108.571 127.213C107.799 122.802 112.598 118.435 115.215 115.577C118.937 111.509 122.817 107.288 127.169 103.771C130.429 107.534 128.703 112.611 126.709 116.234Z" fill="#394149"/>
<path d="M131.483 123.924C123.883 124.71 116.156 125.841 108.559 127.146C109.284 132.712 118.167 133.61 122.197 133.939C130.466 134.612 139.663 131.308 146.064 125.744C142.886 122.022 135.532 123.506 131.483 123.924Z" fill="#394149"/>
<path d="M116.846 10.6772C121.947 12.1248 127.921 14.871 130.87 19.9404C125.516 19.3599 120.252 17.4648 115.104 16.021C109.338 14.4034 103.267 13.1937 97.6848 10.961C103.799 8.52861 111.005 9.02022 116.846 10.6772Z" fill="#394149"/>
<path d="M90.079 8.05389L87.4611 2.30908L84.8923 7.94698L78.9182 4.26351L82.7571 12.286H92.3039L96.0041 4.26351L90.079 8.05389Z" fill="#394149"/>
<path d="M92.2426 13.5327H82.6807V14.936H92.2426V13.5327Z" fill="#394149"/>
<path d="M88.1451 122.086L89.686 126.802H94.6718L90.6382 129.716L92.1788 134.432L88.1451 131.518L84.1115 134.432L85.6523 129.716L81.6187 126.802H86.6045L88.1451 122.086Z" fill="#394149"/>
</svg>
