<svg width="302" height="109" viewBox="0 0 302 109" fill="none" xmlns="http://www.w3.org/2000/svg">
<path d="M30.0731 46.7303C29.9883 48.7087 29.946 51.2136 29.946 54.2445C29.946 57.2755 29.9883 59.8012 30.0731 61.8219C30.1576 63.8005 30.3268 65.379 30.5809 66.5578C30.8771 67.7364 31.2793 68.5573 31.7873 69.0205C32.3376 69.4835 33.0572 69.7151 33.9463 69.7151C34.8351 69.7151 35.5335 69.4835 36.0416 69.0205C36.5919 68.5573 36.994 67.7364 37.248 66.5578C37.5443 65.379 37.7347 63.8005 37.8195 61.8219C37.9042 59.8012 37.9465 57.2755 37.9465 54.2445C37.9465 51.2136 37.9042 48.7087 37.8195 46.7303C37.7347 44.7096 37.5443 43.1098 37.248 41.9313C36.994 40.7525 36.5919 39.9316 36.0416 39.4686C35.5335 39.0054 34.8351 38.7738 33.9463 38.7738C33.0572 38.7738 32.3376 39.0054 31.7873 39.4686C31.2793 39.9316 30.8771 40.7525 30.5809 41.9313C30.3268 43.1098 30.1576 44.7096 30.0731 46.7303Z" fill="#394149"/>
<path fill-rule="evenodd" clip-rule="evenodd" d="M32.3225 7.33663C17.0122 7.66244 4.84247 20.2267 5.08813 35.4539L5.38998 54.1631L5.08813 72.8724C4.84247 88.0997 17.0122 100.664 32.3225 100.99L51.1385 101.39L69.9545 100.99C85.2648 100.664 97.4347 88.0997 97.1891 72.8724L96.8872 54.1631L97.1891 35.4539C97.4347 20.2267 85.2648 7.66244 69.9545 7.33663L51.1385 6.93646L32.3225 7.33663ZM51.7886 77.987L44.677 84.1122L38.2005 77.1661C37.6924 77.2504 37.1844 77.3137 36.6766 77.3557C36.2108 77.4398 35.6816 77.482 35.0891 77.482H33.9462C30.9407 77.482 28.4008 77.0821 26.3266 76.2822C24.2524 75.4824 22.5804 74.1562 21.3105 72.3041C20.0407 70.4097 19.1305 67.9891 18.5802 65.0424C18.0299 62.0535 17.7547 58.4541 17.7547 54.2446C17.7547 50.0349 18.0299 46.4567 18.5802 43.5098C19.1305 40.521 20.0407 38.1005 21.3105 36.2482C22.5804 34.3538 24.2524 32.9857 26.3266 32.1438C28.4008 31.2596 30.9407 30.8176 33.9462 30.8176C36.9517 30.8176 39.4915 31.2596 41.5656 32.1438C43.6398 32.9857 45.3121 34.3538 46.5819 36.2482C47.8518 38.1005 48.762 40.521 49.3123 43.5098C49.8626 46.4567 50.1377 50.0349 50.1377 54.2446C50.1377 58.5804 49.8414 62.2429 49.2487 65.2318C48.6561 68.2207 47.6825 70.6623 46.3279 72.5567L51.7886 77.987ZM71.832 47.9299V45.4042C71.832 42.8363 71.578 41.0892 71.0699 40.1633C70.5621 39.2371 69.7367 38.7739 68.5936 38.7739C67.7047 38.7739 66.9852 39.0055 66.4349 39.4687C65.9268 39.9317 65.5247 40.7525 65.2284 41.9313C64.9744 43.1099 64.8051 44.7097 64.7204 46.7304C64.6356 48.7088 64.5934 51.2137 64.5934 54.2446C64.5934 57.2756 64.6356 59.8012 64.7204 61.8219C64.8051 63.8006 64.9744 65.3791 65.2284 66.5579C65.5247 67.7365 65.9268 68.5574 66.4349 69.0206C66.9852 69.4835 67.7047 69.7151 68.5936 69.7151C69.3131 69.7151 69.9059 69.5468 70.3715 69.2099C70.8373 68.831 71.1969 68.2207 71.4509 67.3788C71.705 66.5369 71.8742 65.4211 71.959 64.032C72.086 62.6008 72.1494 60.8117 72.1494 58.6647H83.5786V62.0115C83.5786 65.1688 83.1553 67.7577 82.3087 69.7782C81.4622 71.7989 80.3405 73.3986 78.9436 74.5772C77.5465 75.714 75.9381 76.4716 74.1177 76.8505C72.34 77.2714 70.4985 77.482 68.5936 77.482C65.2918 77.482 62.5828 77.0821 60.4661 76.2822C58.3497 75.4824 56.6988 74.1562 55.5135 72.3041C54.3281 70.4097 53.5027 67.9891 53.0371 65.0424C52.6138 62.0535 52.4021 58.4541 52.4021 54.2446C52.4021 49.9506 52.6561 46.3094 53.1641 43.3205C53.7144 40.3316 54.6246 37.911 55.8945 36.0588C57.1643 34.2065 58.8364 32.8804 60.9106 32.0805C62.9847 31.2386 65.5458 30.8176 68.5936 30.8176C71.2606 30.8176 73.5251 31.1545 75.3878 31.8281C77.2502 32.5017 78.753 33.4699 79.896 34.7327C81.0811 35.9535 81.9277 37.448 82.4358 39.2161C82.9861 40.9419 83.2612 42.8996 83.2612 45.0886V47.9299H71.832Z" fill="#394149"/>
<path fill-rule="evenodd" clip-rule="evenodd" d="M152.678 39.117L163.03 49.8L173.381 39.117H191.366L172.009 57.4309L191.366 75.7446H173.381L163.03 65.0343L152.678 75.7446H134.666L154.024 57.4309L134.666 39.117H152.678ZM151.68 57.4309L130.626 37.5124H153.366L163.03 47.4851L172.693 37.5124H194.622V37.4851H231.786C240.285 37.3988 247.478 44.466 247.362 52.9457C247.36 55.9958 246.531 58.8074 244.87 61.3097C243.621 63.2039 242.038 64.7623 240.141 65.9473L248.065 76.066V69.5038C248.065 64.3624 251.929 61.0846 256.373 58.9108C260.862 56.7162 266.525 55.3451 271.241 54.2358L271.248 54.2342L271.301 54.2208C274.208 53.5098 276.683 52.9046 278.446 52.2518C279.337 51.9209 279.922 51.6214 280.257 51.367C280.298 51.3346 280.333 51.306 280.363 51.2813C280.261 51.188 280.052 51.0488 279.641 50.8883C278.682 50.5149 277.045 50.2337 274.566 50.233C271.916 50.2602 269.664 50.4745 268.127 51.0107C267.37 51.2751 266.913 51.5762 266.655 51.8588C266.437 52.1015 266.307 52.3894 266.318 52.8411L266.358 54.4843H248.641V52.8797C248.641 49.5855 249.291 46.8312 250.592 44.5745C251.899 42.3077 253.803 40.6525 256.125 39.4654C260.68 37.1362 266.957 36.5585 273.955 36.5585C281.12 36.5585 287.069 37.3807 291.281 39.4977C293.413 40.5705 295.145 41.9983 296.336 43.855C297.529 45.7166 298.115 47.9079 298.115 50.3997C298.115 55.0107 295.317 57.9477 291.887 59.8619C288.558 61.7205 284.366 62.776 280.886 63.6204H297.511V77.2949H249.027L249.048 77.3222H229.627L222.68 68.3832H212.243V77.3222H195.376L195.406 77.3494H172.692L163.03 67.3524L153.367 77.3494H130.626L151.68 57.4309ZM194.622 76.6064V38.2552L174.352 57.4309L194.622 76.6064ZM223.476 66.7786L230.423 75.7174H245.744L237.698 65.443C238.202 65.211 238.683 64.9542 239.145 64.6734C240.905 63.6015 242.367 62.1775 243.519 60.4286C245.003 58.1938 245.744 55.6866 245.744 52.9342C245.855 45.3578 239.402 39.008 231.796 39.0897H196.238V75.7174H210.624V66.7786H223.476ZM272.418 65.225C272.922 64.6124 273.834 64.0915 275.046 63.6204C276.474 63.0644 278.313 62.5777 280.38 62.0911C287.464 60.3741 296.499 58.0303 296.499 50.3997C296.499 41.4607 288.151 38.1631 273.955 38.1631C260.606 38.1631 251.14 40.3258 250.318 51.2748C250.278 51.7902 250.257 52.3248 250.257 52.8797H264.702C264.7 52.8192 264.7 52.7596 264.702 52.7009C264.781 49.4453 269.299 48.6817 274.559 48.6281C279.692 48.6281 282.054 49.7728 282.054 51.3263C282.054 53.2438 277.498 54.3584 271.777 55.7575L271.621 55.7956C262.12 58.0303 249.682 61.1372 249.682 69.5038V75.6901H295.893V65.225H272.418ZM280.454 51.4044C280.454 51.4044 280.445 51.3942 280.44 51.3707C280.454 51.3919 280.454 51.4044 280.454 51.4044ZM229.713 52.9342C229.713 52.0763 229.035 51.4048 228.171 51.4048H212.243V54.4362H228.171C228.636 54.4362 228.961 54.2961 229.251 54.007C229.583 53.6777 229.713 53.3484 229.713 52.9342ZM231.329 52.9342C231.329 51.1899 229.929 49.8 228.171 49.8H210.624V56.0408H228.171C229.049 56.0408 229.792 55.7411 230.396 55.1417C231.027 54.5147 231.329 53.7791 231.329 52.9342Z" fill="#394149"/>
<path d="M135.997 102.169H142.889V92.7855L149.793 102.169H153.238L160.142 92.7855V102.169H167.034V84.5797H158.42L151.515 93.3743L144.624 84.5797H135.997V102.169Z" fill="#394149"/>
<path d="M181.552 84.148C174.898 84.1612 169.454 86.0717 169.48 92.7332V94.0157C169.454 100.664 174.898 102.588 181.552 102.601C188.193 102.588 193.638 100.664 193.612 94.0157V92.7332C193.612 86.0849 188.207 84.148 181.552 84.148ZM186.721 93.5839C186.76 96.4631 184.366 96.9866 181.552 97.0259C178.725 96.9866 176.332 96.4631 176.371 93.5839V93.1521C176.332 90.2858 178.725 89.7624 181.552 89.7231C184.366 89.7624 186.76 90.2858 186.721 93.1521V93.5839Z" fill="#394149"/>
<path d="M212.916 93.4008C212.916 95.1675 211.904 96.6202 210.116 96.6202H202.567V90.1812H210.116C211.904 90.1812 212.916 91.6207 212.916 93.4008ZM195.676 84.6061V102.195H211.405C216.258 102.261 219.861 98.1776 219.822 93.4008C219.861 88.5976 216.258 84.5406 211.405 84.6061H195.676Z" fill="#394149"/>
<path d="M239.008 93.5969C239.047 96.4891 236.656 96.9864 233.839 97.0257C231.013 96.9864 228.633 96.4891 228.659 93.5969V84.5797H221.767V94.0287C221.742 100.677 227.212 102.588 233.839 102.601C240.468 102.588 245.939 100.677 245.913 94.0287V84.5797H239.008V93.5969Z" fill="#394149"/>
<path d="M249.015 84.5797V102.169H269.704V96.5939H255.907V84.5797H249.015Z" fill="#394149"/>
<path d="M272.056 102.195H292.744V97.6802H278.947V95.429H292.744V91.359H278.947V89.1078H292.744V84.606H272.056V102.195Z" fill="#394149"/>
<path d="M139.965 17.5712V13.8644H150.179C150.674 13.8644 151.105 14.0424 151.456 14.4146C151.823 14.7709 151.999 15.2078 151.999 15.7257C151.999 16.2277 151.823 16.6646 151.456 17.0371C151.105 17.3931 150.674 17.5712 150.179 17.5712H139.965ZM131.603 7.50303V29.258H139.965V23.9487H152.27C156.691 24.0136 160.441 20.2095 160.377 15.7257C160.441 11.226 156.691 7.45431 152.27 7.50303H131.603Z" fill="#394149"/>
<path d="M177.022 6.93646C168.947 6.95263 162.34 9.31599 162.372 17.5551V19.1414C162.34 27.3644 168.947 29.7437 177.022 29.7598C185.081 29.7437 191.689 27.3644 191.657 19.1414V17.5551C191.657 9.33215 185.097 6.93646 177.022 6.93646ZM183.293 18.6071C183.342 22.1682 180.437 22.8157 177.022 22.8644C173.591 22.8157 170.687 22.1682 170.734 18.6071V18.073C170.687 14.5281 173.591 13.8806 177.022 13.8321C180.437 13.8806 183.342 14.5281 183.293 18.073V18.6071Z" fill="#394149"/>
<path d="M224.261 21.2781L219.297 7.50317H209.881L204.903 21.2781L199.939 7.50317H190.523L199.939 29.2581H209.881L214.59 18.3807L219.297 29.2581H229.239L238.657 7.50317H229.239L224.261 21.2781Z" fill="#394149"/>
<path d="M239.296 29.2581H264.398V23.6738H247.657V20.8895H264.398V15.8554H247.657V13.0713H264.398V7.50317H239.296V29.2581Z" fill="#394149"/>
<path d="M268.851 7.48667V29.2419H277.213V23.9325H284.682L288.72 29.2419H297.625L292.948 23.1394C294.353 22.4757 295.486 21.4722 296.331 20.1611C297.195 18.8338 297.625 17.3447 297.625 15.7096C297.69 11.2096 293.937 7.43818 289.519 7.48667H268.851ZM287.41 13.8482C288.432 13.8482 289.247 14.6737 289.247 15.7096C289.247 16.2114 289.071 16.6485 288.704 17.0207C288.353 17.377 287.921 17.555 287.41 17.555H277.213V13.8482H287.41Z" fill="#394149"/>
</svg>
