<svg width="380" height="98" viewBox="0 0 380 98" fill="none" xmlns="http://www.w3.org/2000/svg">
<path d="M71.0207 41.6968C78.3069 41.6968 79.9462 44.8441 79.9462 48.7696C79.9462 52.9306 77.9633 55.9117 71.0509 55.9117C64.1826 55.9117 62.1974 53.1038 62.1974 48.7696C62.1974 44.5047 64.3614 41.6968 71.0207 41.6968Z" fill="#394149"/>
<path d="M147.166 41.6968C154.453 41.6968 156.092 44.8441 156.092 48.7696C156.092 52.9306 154.107 55.9117 147.197 55.9117C140.331 55.9117 138.343 53.1038 138.343 48.7696C138.343 44.5047 140.507 41.6968 147.166 41.6968Z" fill="#394149"/>
<path fill-rule="evenodd" clip-rule="evenodd" d="M6.51001 89.6822V7.81769H374.717V89.6822H6.51001ZM181.997 85.064H370.074V12.4359H181.997V85.064ZM71.0555 62.8805C83.991 62.8805 89.429 57.3317 89.429 48.6657C89.429 39.8588 83.3037 34.624 71.0555 34.624C58.9955 34.624 52.6473 40.309 52.6473 48.6657C52.6473 58.096 59.3066 62.8805 71.0555 62.8805ZM26.0821 35.2475V62.4649H52.1899V55.2166H35.5277V35.2475H26.0821ZM118.648 62.4649L118.404 59.8279C115.244 62.0705 111.398 63.1497 107.526 62.8805C101.705 62.8805 96.8568 61.1464 94.1378 57.6458C92.3444 55.0901 91.4388 52.0222 91.5582 48.9081C91.4562 45.8594 92.3931 42.8659 94.2168 40.413C96.9683 37.0163 101.956 34.7626 109.381 34.7626C117.924 34.7626 122.944 37.3626 125.103 41.7314C125.567 42.7604 125.839 43.8641 125.906 44.9896H116.87C116.642 44.3056 116.218 43.703 115.651 43.2555C113.85 42.0686 111.701 41.5197 109.548 41.6968C108.286 41.5446 107.005 41.6606 105.791 42.0372C104.577 42.4138 103.458 43.0423 102.506 43.8812C101.425 45.3521 100.918 47.1629 101.078 48.9774C100.953 50.7085 101.419 52.4311 102.402 53.8658C103.362 54.7555 104.503 55.4293 105.748 55.8421C106.993 56.2548 108.313 56.3968 109.618 56.258C112.21 56.4677 114.784 55.6726 116.8 54.039C117.233 53.5005 117.532 52.8673 117.671 52.1917H107.946V46.3427H126.143V62.4649H118.648ZM147.201 62.8805C160.134 62.8805 165.574 57.3317 165.574 48.6657C165.574 39.8588 159.44 34.624 147.201 34.624C135.141 34.624 128.793 40.309 128.793 48.6657C128.793 58.096 135.452 62.8805 147.201 62.8805Z" fill="#394149"/>
<path d="M197.907 62.3609V35.1436H204.641V62.3609H197.907Z" fill="#394149"/>
<path d="M239.219 50.9887C237.512 53.2077 234.575 54.2214 230.435 54.2468C229.562 54.2468 217.987 54.2122 217.987 54.2122V62.361H211.398V35.1436H230.438C231.963 34.9832 233.507 35.1441 234.965 35.6158C236.426 36.0878 237.768 36.86 238.908 37.8822C240.413 39.8316 241.144 42.2621 240.965 44.7125C241.118 46.9413 240.503 49.1555 239.219 50.9887ZM233.816 42.1148C233.119 41.0757 231.617 40.4984 229.075 40.4984H217.953V48.7835H229.003C231.722 48.7835 233.154 48.2293 233.816 47.1533C234.208 46.3952 234.378 45.5415 234.304 44.6918C234.362 43.8055 234.194 42.9191 233.816 42.1148Z" fill="#394149"/>
<path d="M260.383 62.7766C247.97 62.7766 244.172 58.1584 244.172 53.5887H251.214C251.214 55.8424 254.316 57.5419 260.697 57.5419C267.04 57.5419 268.714 56.4312 268.714 54.6278C268.714 52.6166 267.46 51.9931 261.567 51.335C260.406 51.2311 257.246 50.8501 256.06 50.6769C247.701 49.7394 244.483 47.2779 244.483 42.8745C244.483 38.2286 249.192 34.728 259.406 34.728C270.493 34.728 274.747 39.0621 274.747 43.5695H267.781C267.781 41.2812 265.166 39.9627 258.995 39.9627C252.649 39.9627 251.291 40.8286 251.291 42.5281C251.291 44.2969 252.684 44.8511 259.417 45.6477C260.952 45.8578 264.368 46.2388 265.308 46.3404C272.422 47.0678 275.629 49.6332 275.629 54.1752C275.617 59.5854 270.737 62.7766 260.383 62.7766Z" fill="#394149"/>
<path d="M295.459 62.7419C286.361 62.7419 280.433 59.1698 280.433 51.6582V35.1436H287.09V51.7506C287.09 55.1842 289.916 57.4702 295.737 57.4702C301.001 57.4702 304.14 55.3228 304.14 51.7506V35.1436H310.73V52.2748C310.73 59.1028 305.22 62.7419 295.459 62.7419Z" fill="#394149"/>
<path d="M346.813 62.3609V44.1929L338.27 62.3609H331.788L323.489 44.1929V62.3609H317.22V35.1436H325.713L335.126 55.877L344.749 35.1436H353.107V62.3609H346.813Z" fill="#394149"/>
</svg>
